<svg width="177" height="84" viewBox="0 0 177 84" fill="none" xmlns="http://www.w3.org/2000/svg">
<path d="M126.199 67.3749C124.399 68.6725 122.353 69.5874 120.186 70.0629C110.595 71.8399 103.055 69.1897 98.9461 58.4235C94.5873 47.0178 98.4199 38.3638 108.577 37.3726C112.757 36.9691 116.577 37.5874 119.888 39.3243C120.432 35.4961 121.629 31.7897 123.428 28.367C117.765 25.4902 111.244 24.4684 104.145 25.1622C86.5398 26.8873 79.028 45.2549 86.5894 65.0456C93.7188 83.7129 107.647 84.9306 124.278 81.8485C127.37 81.2727 133.01 79.17 137.355 75.0046C132.841 73.4313 129.122 70.8881 126.199 67.3749Z" fill="black"/>
<path d="M170.539 25.7102C166.329 20.4758 160.139 17.6061 151.971 17.1011C144.203 16.6212 137.794 18.8112 132.744 23.6712C127.694 28.5312 124.911 35.0604 124.397 43.2589C123.873 51.7296 125.72 58.6569 129.938 64.0408C134.156 69.4246 140.349 72.3706 148.518 72.8788C156.518 73.3744 162.977 71.2379 167.893 66.4692C172.81 61.7005 175.532 55.0367 176.059 46.4779C176.592 37.8687 174.752 30.9462 170.539 25.7102ZM163.004 45.6566C162.651 51.3457 161.235 55.6597 158.756 58.5987C156.276 61.5376 153.074 62.8859 149.148 62.6437C140.613 62.115 136.713 55.9256 137.447 44.0755C137.79 38.55 139.212 34.3201 141.712 31.3859C144.212 28.4517 147.42 27.105 151.336 27.3457C159.84 27.8727 163.729 33.9772 163.004 45.659V45.6566Z" fill="black"/>
<path d="M59.476 17.8887L63.7759 45.885L28.0271 0.458008H11.6348L33.9955 30.1204C19.4109 34.0073 11.3398 41.2878 5.66173 52.7619C0.585449 62.9971 0.585449 75.7125 0.585449 75.7125H16.9754C17.0202 58.204 27.9445 44.2283 42.9468 41.9934L43.8672 43.2135L68.3589 75.7102H83.2408L74.3579 17.8911L59.476 17.8887Z" fill="black"/>
<path d="M83.0714 17.8864C87.8756 17.8864 91.7702 13.9918 91.7702 9.1876C91.7702 4.38337 87.8756 0.48877 83.0714 0.48877C78.2672 0.48877 74.3726 4.38337 74.3726 9.1876C74.3726 13.9918 78.2672 17.8864 83.0714 17.8864Z" fill="black"/>
</svg>
