<svg xmlns="http://www.w3.org/2000/svg" viewBox="0 0 115.16 115.16"><defs><style>.cls-1{fill:#0600ff;}</style></defs><g id="Capa_2" data-name="Capa 2"><g id="por_encima" data-name="por encima"><path class="cls-1" d="M98.43,16.73A55.94,55.94,0,0,0,57.58,0,55.73,55.73,0,0,0,16.9,16.73,55.66,55.66,0,0,0,0,57.58,55.46,55.46,0,0,0,16.9,98.27a55.45,55.45,0,0,0,40.68,16.89A55.65,55.65,0,0,0,98.43,98.27a55.73,55.73,0,0,0,16.73-40.69A55.93,55.93,0,0,0,98.43,16.73ZM106,33.79a54.16,54.16,0,0,1,5.25,22H97.12a78,78,0,0,0-2.79-18.21q5.91-1.8,11.48-3.78Zm-29.86,44q6.88,1,13.12,2.46a60.85,60.85,0,0,1-8.36,15.59A77.93,77.93,0,0,0,72.18,93,80.15,80.15,0,0,0,76.12,77.76Zm-7.71,14.6a58.87,58.87,0,0,0-8.86-1V76.61a103.22,103.22,0,0,1,12.63.66A75.76,75.76,0,0,1,68.41,92.36ZM76.61,74a98.65,98.65,0,0,0,1.13-13.43H93.16a53.55,53.55,0,0,1-2.77,15.89Q83.67,75,76.61,74Zm1.15-18.21A99.81,99.81,0,0,0,76.61,41a110.82,110.82,0,0,0,13.78-2.46,54.12,54.12,0,0,1,2.79,17.23ZM76.12,37.24A80.35,80.35,0,0,0,72.18,22a77.93,77.93,0,0,0,8.7-2.79,60.22,60.22,0,0,1,8.36,15.75Q83,36.26,76.12,37.24ZM104,30.35a107.74,107.74,0,0,1-11,3.44,65.77,65.77,0,0,0-8.53-16.24h-.17q2.79-1.47,5.42-3.11A51.92,51.92,0,0,1,104,30.35ZM86.29,12A25.19,25.19,0,0,1,82,14.27a81.63,81.63,0,0,0-8.21-8A58.71,58.71,0,0,1,86.29,12Zm-8,3.93A59.72,59.72,0,0,1,71,18.37a93.06,93.06,0,0,0-6.72-14.1A50.31,50.31,0,0,1,78.25,15.91Zm-18.7-12A81.18,81.18,0,0,1,67.1,19a58.66,58.66,0,0,1-7.55.82Zm0,19.68a56.39,56.39,0,0,0,8.86-1,75.76,75.76,0,0,1,3.77,15.09,103.22,103.22,0,0,1-12.63.66Zm-.16,18.7q6.72-.15,13.45-.82A125.34,125.34,0,0,1,74,55.78H59.39ZM55.78,55.78H41.18A120.93,120.93,0,0,1,42.33,41.5q6.72.66,13.45.82ZM38.55,74q-7,1-13.78,2.46A60.39,60.39,0,0,1,22,60.56h15.4A98.6,98.6,0,0,0,38.55,74Zm.66,3.77A72.05,72.05,0,0,0,43,93a68.64,68.64,0,0,0-8.53,2.79,58.41,58.41,0,0,1-8.53-15.59C30.08,79.24,34.5,78.42,39.21,77.76Zm0-40.52c-4.71-.66-9.13-1.42-13.29-2.3a57.85,57.85,0,0,1,8.53-15.75A68.64,68.64,0,0,0,43,22,72.21,72.21,0,0,0,39.21,37.24Zm7.54-14.6a59.45,59.45,0,0,0,8.86,1V38.39A105.78,105.78,0,0,1,43,37.73,95.69,95.69,0,0,1,46.75,22.64ZM38.55,41A101.18,101.18,0,0,0,37.4,55.78H22a61.06,61.06,0,0,1,2.79-17.23A110.82,110.82,0,0,0,38.55,41ZM55.61,19.85A54.27,54.27,0,0,1,48.23,19,74.46,74.46,0,0,1,55.61,3.94ZM44.29,18.37a57,57,0,0,1-7.38-2.46,53.72,53.72,0,0,1,14-11.64A103,103,0,0,0,44.29,18.37ZM41.51,6.23a63.58,63.58,0,0,0-8.21,8A33.3,33.3,0,0,1,28.87,12,57.61,57.61,0,0,1,41.51,6.23ZM25.43,14.44q2.63,1.63,5.41,3.11a62.38,62.38,0,0,0-8.69,16.24,113,113,0,0,1-10.83-3.44A52.67,52.67,0,0,1,25.43,14.44ZM9.35,33.79h.17q5.4,2,11.48,3.78a72.34,72.34,0,0,0-2.95,18.21H3.94A52.6,52.6,0,0,1,9.35,33.79Zm0,47.41A51.21,51.21,0,0,1,4,60.56H18.1a73.06,73.06,0,0,0,2.9,17q-6.08,1.64-11.48,3.6Zm2,3.61A91.06,91.06,0,0,1,22.15,81.2a62.13,62.13,0,0,0,8.69,16.25,54.47,54.47,0,0,0-5.41,3.28A55.44,55.44,0,0,1,11.32,84.81ZM28.87,103a33.3,33.3,0,0,1,4.43-2.29,51.88,51.88,0,0,0,8.21,8A57.15,57.15,0,0,1,28.87,103Zm8-3.93c2.41-.88,4.87-1.64,7.38-2.3a107.45,107.45,0,0,0,6.57,13.94A53.72,53.72,0,0,1,36.91,99.09Zm18.7,12A69.19,69.19,0,0,1,48.23,96a41,41,0,0,1,7.38-.66Zm0-19.68a62.21,62.21,0,0,0-8.86,1A95.69,95.69,0,0,1,43,77.27a105.78,105.78,0,0,1,12.63-.66ZM42.33,73.66a125.13,125.13,0,0,1-1.11-13.1H55.78V72.84A110.23,110.23,0,0,0,42.33,73.66Zm17.06-13.1H73.94a127.85,127.85,0,0,1-1.1,13.1,110.47,110.47,0,0,0-13.45-.82Zm.16,34.75A43.76,43.76,0,0,1,67.1,96a74.9,74.9,0,0,1-7.55,15.09ZM71,96.79c2.41.66,4.82,1.42,7.22,2.3a50.31,50.31,0,0,1-13.94,11.64A96.58,96.58,0,0,0,71,96.79Zm2.79,12a63.25,63.25,0,0,0,8.21-8A25.19,25.19,0,0,1,86.29,103,58.23,58.23,0,0,1,73.82,108.77Zm15.92-8a54.61,54.61,0,0,0-5.42-3.28h.17A65.49,65.49,0,0,0,93,81.2a87.82,87.82,0,0,1,11,3.61A54.59,54.59,0,0,1,89.74,100.73ZM105.81,81.2q-5.58-2-11.48-3.6a77.88,77.88,0,0,0,2.73-17h14.1A52.71,52.71,0,0,1,106,81.2Zm5.37-20.93v-.88h0C111.22,59.68,111.19,60,111.18,60.27Z"/></g></g></svg>