<svg width="170" height="141" viewBox="0 0 170 141" fill="none" xmlns="http://www.w3.org/2000/svg">
<path d="M107.941 35.3738L115.764 86.2991L50.74 3.67358H20.9245L61.5912 57.6036C35.0707 64.7152 20.3852 77.937 10.0614 98.8037C0.828125 117.46 0.828125 140.573 0.828125 140.573H30.6378C30.7208 108.707 50.6097 83.2826 77.871 79.223L79.5422 81.4454L124.097 140.573H151.162L135.007 35.3738H107.941Z" fill="black"/>
<path d="M154.492 34.9568C162.997 32.9493 168.265 24.427 166.258 15.9217C164.25 7.41636 155.728 2.14878 147.223 4.15622C138.717 6.16366 133.45 14.686 135.457 23.1913C137.465 31.6966 145.987 36.9642 154.492 34.9568Z" fill="black"/>
</svg>
