<svg width="25" height="25" viewBox="0 0 25 25" fill="none" xmlns="http://www.w3.org/2000/svg">
<mask id="mask0_435_9" style="mask-type:alpha" maskUnits="userSpaceOnUse" x="0" y="0" width="25" height="25">
<rect x="0.924561" y="0.702148" width="24" height="24" fill="#0019FF"/>
</mask>
<g mask="url(#mask0_435_9)">
<path d="M18.9246 21.7021L22.9246 17.7021L21.5246 16.3021L19.9246 17.9021V13.7271H17.9246V17.9021L16.3246 16.3021L14.9246 17.7021L18.9246 21.7021ZM14.9246 24.7021V22.7021H22.9246V24.7021H14.9246ZM6.92456 20.7021C6.37456 20.7021 5.90373 20.5063 5.51206 20.1146C5.12039 19.723 4.92456 19.2521 4.92456 18.7021V4.70215C4.92456 4.15215 5.12039 3.68132 5.51206 3.28965C5.90373 2.89798 6.37456 2.70215 6.92456 2.70215H13.9246L19.9246 8.70215V11.7271H17.9246V9.70215H12.9246V4.70215H6.92456V18.7021H12.9246V20.7021H6.92456Z" fill="#0019FF"/>
</g>
</svg>
