<svg width="25" height="25" viewBox="0 0 25 25" fill="none" xmlns="http://www.w3.org/2000/svg">
<mask id="mask0_444_29" style="mask-type:alpha" maskUnits="userSpaceOnUse" x="0" y="0" width="25" height="25">
<rect x="0.958496" y="0.838867" width="24" height="24" fill="#D9D9D9"/>
</mask>
<g mask="url(#mask0_444_29)">
<path d="M12.9585 20.8389C10.7252 20.8389 8.8335 20.0639 7.2835 18.5139C5.7335 16.9639 4.9585 15.0722 4.9585 12.8389C4.9585 10.6055 5.7335 8.71387 7.2835 7.16387C8.8335 5.61387 10.7252 4.83887 12.9585 4.83887C14.1085 4.83887 15.2085 5.07637 16.2585 5.55137C17.3085 6.02637 18.2085 6.70553 18.9585 7.58887V4.83887H20.9585V11.8389H13.9585V9.83887H18.1585C17.6252 8.90553 16.896 8.1722 15.971 7.63887C15.046 7.10553 14.0418 6.83887 12.9585 6.83887C11.2918 6.83887 9.87516 7.4222 8.7085 8.58887C7.54183 9.75553 6.9585 11.1722 6.9585 12.8389C6.9585 14.5055 7.54183 15.9222 8.7085 17.0889C9.87516 18.2555 11.2918 18.8389 12.9585 18.8389C14.2418 18.8389 15.4002 18.4722 16.4335 17.7389C17.4668 17.0055 18.1918 16.0389 18.6085 14.8389H20.7085C20.2418 16.6055 19.2918 18.0472 17.8585 19.1639C16.4252 20.2805 14.7918 20.8389 12.9585 20.8389Z" fill="white"/>
</g>
</svg>
