<svg width="415" height="372" viewBox="0 0 415 372" fill="none" xmlns="http://www.w3.org/2000/svg">
<path d="M253.57 356.974C255.285 356.081 255.95 353.967 255.057 352.253L240.504 324.317C239.611 322.602 237.497 321.936 235.783 322.83C234.069 323.723 233.403 325.836 234.296 327.551L247.232 352.383L222.4 365.319C220.685 366.212 220.02 368.326 220.913 370.04C221.806 371.755 223.919 372.421 225.634 371.528L253.57 356.974ZM13.5648 278.784L12.6847 275.396L0.889267 278.461L12.5133 282.122L13.5648 278.784ZM350.836 305.858L349.178 308.941L351.589 310.238L353.429 308.209L350.836 305.858ZM377.118 122.991L380.485 122.036L378.504 115.058L374.275 120.95L377.118 122.991ZM359.473 5.35693L362.926 5.92767L363.754 0.919745L358.779 1.92646L359.473 5.35693ZM410.378 240.186L412.971 242.536L414.275 241.098L413.745 239.23L410.378 240.186ZM328.936 190.112L325.483 189.542L331.779 192.153L328.936 190.112ZM207.033 228.519L208.69 225.436L207.481 224.786L206.153 225.131L207.033 228.519ZM253.005 350.532L14.6163 275.445L12.5133 282.122L250.902 357.208L253.005 350.532ZM358.779 1.92646L44.1044 65.602L45.4927 72.463L360.167 8.7874L358.779 1.92646ZM353.429 308.209L412.971 242.536L407.785 237.835L348.243 303.507L353.429 308.209ZM413.745 239.23L380.485 122.036L373.751 123.947L407.011 241.141L413.745 239.23ZM374.275 120.95L326.093 188.071L331.779 192.153L379.961 125.032L374.275 120.95ZM332.389 190.683L362.926 5.92767L356.02 4.78619L325.483 189.542L332.389 190.683ZM14.4449 282.171L207.913 231.907L206.153 225.131L12.6847 275.396L14.4449 282.171ZM205.375 231.601L349.178 308.941L352.493 302.776L208.69 225.436L205.375 231.601Z" fill="#FF0080"/>
</svg>
