<svg width="427" height="183" viewBox="0 0 427 183" fill="none" xmlns="http://www.w3.org/2000/svg">
<path d="M421.783 180.164C421.516 181.519 420.201 182.4 418.846 182.132L396.773 177.773C395.418 177.505 394.537 176.19 394.804 174.836C395.072 173.481 396.387 172.6 397.741 172.867L417.362 176.743L421.238 157.122C421.505 155.767 422.82 154.886 424.175 155.154C425.529 155.421 426.41 156.736 426.143 158.091L421.783 180.164ZM212.835 113.935L213.375 116.376L213.272 116.399L213.168 116.413L212.835 113.935ZM27.0526 16.6831C25.6395 23.9101 18.6354 28.6232 11.4084 27.2101C4.18147 25.797 -0.5316 18.7929 0.881479 11.5659C2.29456 4.33899 9.29868 -0.374076 16.5256 1.039C23.7526 2.45208 28.4656 9.4562 27.0526 16.6831ZM417.254 181.071C406.044 164.344 370.617 128.275 319.412 118.951L320.308 114.032C373.207 123.664 409.68 160.788 421.407 178.288L417.254 181.071ZM319.412 118.951C267.651 109.526 227.003 113.359 213.375 116.376L212.294 111.494C226.639 108.318 267.963 104.501 320.308 114.032L319.412 118.951ZM213.168 116.413C195.312 118.815 167.959 119.63 143.894 114.199C119.967 108.799 98.2654 96.9449 93.7032 73.2237L98.6132 72.2794C102.582 92.9149 121.549 104.03 144.994 109.321C168.3 114.581 195.019 113.81 212.501 111.458L213.168 116.413ZM93.7032 73.2237C89.6233 52.0104 75.6105 38.3822 59.4984 29.7474C43.3468 21.0915 25.2918 17.5835 13.758 16.6158L14.176 11.6333C26.151 12.638 44.9261 16.2651 61.8602 25.3404C78.8337 34.4368 94.1621 49.1358 98.6132 72.2794L93.7032 73.2237Z" fill="white"/>
</svg>
