<svg xmlns="http://www.w3.org/2000/svg" viewBox="0 0 526.06 694.12"><defs><style>.cls-1,.cls-2,.cls-3,.cls-4{fill:none;stroke-miterlimit:10;stroke-width:28px;}.cls-1{stroke:#f3ff00;}.cls-2{stroke:#ff0080;}.cls-3{stroke:#0600ff;}.cls-4{stroke:#000;}</style></defs>
    <g id="Capa_2" data-name="Capa 2">
    <g id="por_encima" data-name="por encima">
        <path class="cls-1" d="M444.76,16.67c-25.28-.4-48.18.07-64.2-2.11C337,8.63,323,51,334.28,70.65c7.37,12.82,87.77,148.16,2.79,241.16-21.13,23.11-2.94,45.93-21.13,73.27-29.55,44.44-49.35,38.62-102.69,40.65-22.8.87-25.13.94-49.23,2.07-22.09,1.05-54,4.76-61.14,5.56C45.2,439.82,31.79,476.29,29.46,482,13.62,521.1,14,656.18,14,694.11"/>
        <path class="cls-2" d="M480,17.25c-25.28-.41-55.36-.51-71.38-2.69C365,8.63,351,51,362.31,70.65c7.37,12.82,87.77,148.16,2.79,241.16C344,334.92,362.16,357.74,344,385.08c-29.56,44.44-49.36,38.62-102.69,40.65-22.81.87-25.14.94-49.24,2.07-22.08,1.05-54,4.76-61.14,5.56C73.23,439.82,59.82,476.29,57.49,482,41.65,521.1,42.05,656.18,42,694.11"/>
        <path class="cls-3" d="M500.83,17.65c-25.28-.4-48.24-.91-64.26-3.09C393,8.63,379,51,390.29,70.65c7.37,12.82,87.77,148.16,2.79,241.16C372,334.92,390.14,357.74,372,385.08c-29.56,44.44-49.36,38.62-102.69,40.65-22.81.87-25.14.94-49.24,2.07-22.08,1.05-54,4.76-61.14,5.56C101.21,439.82,87.8,476.29,85.47,482,69.63,521.1,70,656.18,70,694.11"/>
        <path class="cls-4" d="M525.84,18.41c-25.28-.41-45.46-1.67-61.48-3.85C420.77,8.63,406.8,51,418.08,70.65c7.36,12.82,87.77,148.16,2.79,241.16-21.13,23.11-2.95,45.93-21.13,73.27-29.55,44.44-49.36,38.62-102.69,40.65-22.81.87-25.14.94-49.24,2.07-22.08,1.05-54,4.76-61.13,5.56-57.68,6.46-71.1,42.93-73.43,48.68C97.41,521.1,97.81,656.18,97.8,694.11"/>
    </g>
    </g>
</svg>