<svg xmlns="http://www.w3.org/2000/svg" viewBox="0 0 2476.35 384.72"><defs><style>.cls-1{fill:#FFD400;}</style></defs><g id="Capa_2" data-name="Capa 2"><g id="Capa_6" data-name="Capa 6"><path class="cls-1" d="M1.08,317,0,8.27,133.7,7.8q52.94-.18,88.9,16.29T277.29,74.6q18.72,34,18.92,87,.18,52.5-18.32,86.89t-54.33,51.11q-35.85,16.73-88.78,16.91ZM100,242.57l32.76-.11q16.14-.06,28-4.59a48.63,48.63,0,0,0,19.47-13.08,52.8,52.8,0,0,0,11.15-21.12,103.25,103.25,0,0,0,3.49-28.28l-.1-26.92a102.65,102.65,0,0,0-3.68-28.25,53,53,0,0,0-11.29-21,48.92,48.92,0,0,0-19.57-13q-11.91-4.43-28.05-4.38L99.41,82Z"/><path class="cls-1" d="M429.09,279.44q-40.72.13-70.56-12.4t-46-38.64q-16.17-26.1-16.31-66.83-.13-39.87,15.63-66.07a98.73,98.73,0,0,1,44.24-39.38q28.46-13.18,67-13.31,40.72-.15,69.28,12.4t43.65,38.65q15.11,26.1,15.24,66.82l.05,14.58-169.77.59q.06,15.43,4.6,26.57A33.23,33.23,0,0,0,400.8,219.3Q410.9,225,427.19,225q11.58,0,19.5-2.64a34.77,34.77,0,0,0,12.83-7.12,26,26,0,0,0,7-10.53,38.27,38.27,0,0,0,2.1-12.87l82.74-.29q.08,20.16-7.59,36.47a72.67,72.67,0,0,1-23,27.73q-15.4,11.42-38.31,17.5T429.09,279.44ZM381.86,135.55l83.17-.29a46.88,46.88,0,0,0-2.63-16.07,31.47,31.47,0,0,0-19.57-19.43,46.82,46.82,0,0,0-16.09-2.52q-14.14,0-23.56,4.8a35.1,35.1,0,0,0-14.53,13.12A52.7,52.7,0,0,0,381.86,135.55Z"/><path class="cls-1" d="M910.22,278a207.93,207.93,0,0,1-41-3.93,140.19,140.19,0,0,1-37.34-12.73,78.5,78.5,0,0,1-27.3-22.41q-10.33-13.68-10.41-33.41v-2.78a13.63,13.63,0,0,1,.42-3.22l79.31-.28a8.29,8.29,0,0,0-.42,2.58v2.14a19.48,19.48,0,0,0,5.4,12.84,30.31,30.31,0,0,0,13.1,7.67A59.25,59.25,0,0,0,910,227a142.66,142.66,0,0,0,14.36-.9,39.74,39.74,0,0,0,14.77-4.34q6.42-3.45,6.39-11.6,0-7.29-7.54-10.91t-19.74-5.93q-12.22-2.31-26.81-4.84-15.87-2.51-32-6.53a126.61,126.61,0,0,1-29.84-11.47,61.93,61.93,0,0,1-22.15-19.86q-8.4-12.4-8.47-32.12-.07-22.29,9.09-37.33a66.47,66.47,0,0,1,25.21-23.89,119.21,119.21,0,0,1,36.4-12.55,241.29,241.29,0,0,1,42.64-3.8,204.9,204.9,0,0,1,38.38,3.51,134,134,0,0,1,35,11.46,68.92,68.92,0,0,1,25.37,20.7q9.46,12.83,9.54,31.26V111a6.63,6.63,0,0,1-.42,2.79l-78.45.27v-3.43a13.55,13.55,0,0,0-4.54-10.49,27.93,27.93,0,0,0-11.6-6,54.21,54.21,0,0,0-14.37-1.88q-2.56,0-7.71.24a55.14,55.14,0,0,0-10.5,1.54,22,22,0,0,0-9,4.32q-3.63,3-3.61,8.59,0,5.15,5,8.34a41.66,41.66,0,0,0,13.31,5.1q8.35,1.89,18.66,4,16.29,3,35.17,5.67a163.26,163.26,0,0,1,35.83,9.31,64.71,64.71,0,0,1,27.73,20.05q10.75,13.47,10.85,37.9.07,23.16-9.3,38.83A67.64,67.64,0,0,1,992,261a122.51,122.51,0,0,1-37.46,13A247.57,247.57,0,0,1,910.22,278Z"/><path class="cls-1" d="M1107,277.07a150,150,0,0,1-32.16-3.1,69.86,69.86,0,0,1-25.33-10.63,49.46,49.46,0,0,1-16.58-19.67q-5.82-12.19-5.89-29.77-.09-25.29,10.36-41.2T1068,148.16q20.11-8.64,49-12a606.94,606.94,0,0,1,66.22-3.45l0-11.14q0-9.44-4.55-15.21a28.21,28.21,0,0,0-11.82-8.74,43.77,43.77,0,0,0-16.73-3,69.28,69.28,0,0,0-15,1.77,28.19,28.19,0,0,0-12.63,6c-3.28,2.87-4.9,6.87-4.89,12v1.71l-84,.3a13,13,0,0,1-.44-3v-3a54.37,54.37,0,0,1,13.38-36.71q13.45-15.69,39.78-24.57t64.92-9a231.43,231.43,0,0,1,57.9,6.66q26.61,6.77,43,22.79t16.45,43.88l.31,88.32a20,20,0,0,0,3.47,11.77q3.43,4.92,10.3,4.9l15.44-.06.17,49.31q-5.13,3-16.91,5.84a121.27,121.27,0,0,1-27.65,2.89,117,117,0,0,1-30-3.33q-12.87-3.37-20.82-9.79a33.41,33.41,0,0,1-11-15h-3A108,108,0,0,1,1168,263.14a110.05,110.05,0,0,1-26.76,10.16A146.46,146.46,0,0,1,1107,277.07Zm34.55-53.28a52.6,52.6,0,0,0,29.12-8.89,30.9,30.9,0,0,0,9.39-9.9,24.32,24.32,0,0,0,3.39-12.66l-.07-19.29q-25.29.09-40.93,4t-22.9,10.37q-7.26,6.47-7.23,15t4.33,13.28a21.62,21.62,0,0,0,11,6.39A55.69,55.69,0,0,0,1141.54,223.79Z"/><path class="cls-1" d="M1298.19,274l-.79-226.36,69.88-.24L1373,81.72h3a71.56,71.56,0,0,1,14.28-21.92,56.9,56.9,0,0,1,20.32-13.57A66.73,66.73,0,0,1,1435,41.63a64.17,64.17,0,0,1,15.44,1.66,39.27,39.27,0,0,1,9.87,3.82l.25,71.17-27.44.1q-13.72,0-23.35,3.72a35.91,35.91,0,0,0-15.4,10.77,46.09,46.09,0,0,0-8.51,17.18,86,86,0,0,0-2.71,22.95l.36,100.74Z"/><path class="cls-1" d="M1461.1,273.47l-.79-226.36,69.88-.24,5.69,34.28h3a71.56,71.56,0,0,1,14.28-21.92,57,57,0,0,1,20.32-13.57,66.73,66.73,0,0,1,24.42-4.59,64.17,64.17,0,0,1,15.44,1.66,42,42,0,0,1,9.87,3.4l.25,71.59-27.44.1q-13.72,0-23.35,3.72a35.81,35.81,0,0,0-15.39,10.77,46,46,0,0,0-8.52,17.18,86,86,0,0,0-2.71,23l.36,100.75Z"/><path class="cls-1" d="M1751.35,274.82q-38.58.14-67.14-12.84a98.36,98.36,0,0,1-44.51-39.29q-16-26.31-16.09-65.75-.13-39.87,15.63-66.08a98.76,98.76,0,0,1,44.23-39.38q28.47-13.17,67-13.31T1817.88,51q28.75,13,44.72,39.07t16.09,66q.13,39.45-15.63,65.86a98.3,98.3,0,0,1-44.45,39.6Q1789.93,274.68,1751.35,274.82Zm-.2-57.88q15,0,24.41-5.87a33.3,33.3,0,0,0,13.66-16.55q4.24-10.74,4.2-25.74l-.08-24.44q-.06-15-4.38-25.92a33.2,33.2,0,0,0-13.78-16.67Q1765.73,96,1750.72,96t-24.2,5.88a33.5,33.5,0,0,0-13.44,16.76q-4.26,10.95-4.2,26l.09,24.43q0,15,4.37,25.71a33.6,33.6,0,0,0,13.56,16.46Q1736.14,217,1751.15,216.94Z"/><path class="cls-1" d="M1879.23,311.45,1878.15.64l85.31-.3,1.09,310.82Z"/><path class="cls-1" d="M1976.85,311.11,1975.76.3l85.31-.3,1.09,310.82Z"/><path class="cls-1" d="M643.3,384.72l-135.45-374,102.95-.36L652.73,149q1.75,5.67,4.86,16.56t6.84,23.09q3.74,12.21,6.4,22.23h3.49q2.58-9.18,6-21L687,167q3.23-11.13,5-18.12L733.39,10,832,9.63,696.68,384.54Z"/><path class="cls-1" d="M2179.55,309.41a105.61,105.61,0,0,1-59-15.88q-26.73-16.54-42.82-46.78t-16.06-70.53c0-26.67,209.76-89,220.13-109.71S2278.21,19.74,2296,8.08,2349.54,1,2372,.5s42.58,4.79,60.41,15.72S2465.78,28.71,2476,49s-178.5,95.77-178.53,122.44q0,40.31-16.19,71.19t-42.79,48.52A108.54,108.54,0,0,1,2179.55,309.41Zm0-4.44q27.22-.56,37.89-34.26t10.72-97.88c0-42.61,188.71-113,181.65-135S2390.13,4.86,2372,5.23,2341.2,17,2334.1,39.34s-202.87,92.86-202.91,135.47q0,42.78,4.35,71.87t15.13,43.87Q2161.4,305.34,2179.55,305Z"/></g></g></svg>