<svg xmlns="http://www.w3.org/2000/svg" viewBox="0 0 342.62 225.96"><defs><style>.cls-1{fill:none;stroke:#0600ff;stroke-linecap:round;stroke-miterlimit:10;stroke-width:3px;}.cls-2{fill:#0600ff;}</style></defs><g id="Capa_2" data-name="Capa 2"><g id="Capa_1-2" data-name="Capa 1"><path class="cls-1" d="M8,218.05c28.32-43,53-53.84,71.45-54.69,24.84-1.15,33.59,8.75,61.6,12.2,24.34,3,48.1.31,62.57-21.75,13.28-20.26,5.18-52.1,20.46-57.47,12-4.19,42.31,15.51,52,10,12.79-7.3-7-43.33,5-56.11C287,44,312.32,53.69,336.63,4.06"/><path class="cls-2" d="M15.15,222.19a8.23,8.23,0,1,1-2.45-11.38A8.24,8.24,0,0,1,15.15,222.19Z"/><path class="cls-2" d="M341,33.51a1.79,1.79,0,0,1-2-1.59L336.19,4.76l-23.4,14.08a1.79,1.79,0,0,1-2.45-.6,1.82,1.82,0,0,1,.61-2.46L336.75.25a1.78,1.78,0,0,1,1.72-.06,1.8,1.8,0,0,1,1,1.41l3.16,29.94a1.79,1.79,0,0,1-.17,1A1.82,1.82,0,0,1,341,33.51Z"/></g></g></svg>