<svg width="562" height="386" viewBox="0 0 562 386" fill="none" xmlns="http://www.w3.org/2000/svg">
<path d="M219.768 419.686C215.142 333.211 270.005 256.288 346.998 234.877C435.378 210.293 513.639 257.39 548.248 321.879" stroke="#D9D9D9" stroke-width="29" stroke-miterlimit="10"/>
<path d="M229.263 370.238L218.161 367.484L219.2 363.294C219.345 362.698 219.582 362.128 219.901 361.605C220.193 361.125 220.579 360.71 221.036 360.383C221.499 360.063 222.027 359.851 222.583 359.762C223.219 359.669 223.866 359.708 224.487 359.875L227.238 360.558C227.865 360.7 228.455 360.969 228.974 361.347C229.424 361.682 229.789 362.116 230.043 362.616C230.292 363.12 230.439 363.669 230.475 364.23C230.516 364.84 230.461 365.452 230.309 366.044L229.263 370.238ZM227.939 367.195L228.292 365.795C228.392 365.422 228.421 365.032 228.378 364.648C228.33 364.308 228.162 363.997 227.904 363.771C227.566 363.482 227.158 363.285 226.721 363.2L223.659 362.434C223.237 362.307 222.789 362.289 222.357 362.383C222.022 362.47 221.727 362.671 221.523 362.951C221.299 363.269 221.141 363.628 221.058 364.008L220.705 365.408L227.939 367.195Z" fill="black"/>
<path d="M233.041 356.796C232.828 357.605 232.42 358.349 231.852 358.962C231.369 359.459 230.735 359.781 230.049 359.879C229.287 359.976 228.513 359.902 227.783 359.663L227.351 359.534C226.592 359.325 225.9 358.924 225.343 358.368C224.851 357.855 224.523 357.206 224.401 356.506C224.275 355.717 224.34 354.909 224.589 354.15C224.784 353.441 225.147 352.788 225.647 352.249C226.087 351.783 226.651 351.452 227.273 351.295C227.947 351.148 228.648 351.187 229.302 351.409L230.435 351.752L228.766 357.257L229.182 357.384C229.428 357.481 229.692 357.529 229.957 357.524C230.222 357.519 230.484 357.462 230.727 357.356C230.931 357.247 231.11 357.097 231.253 356.915C231.396 356.734 231.501 356.525 231.56 356.301C231.731 355.863 231.722 355.376 231.534 354.945C231.414 354.749 231.256 354.579 231.069 354.446C230.882 354.312 230.67 354.219 230.446 354.169L231.086 351.957C231.69 352.122 232.23 352.468 232.633 352.948C233.007 353.427 233.235 354.005 233.288 354.61C233.352 355.348 233.268 356.091 233.041 356.796ZM227.44 356.824L228.402 353.648L228.195 353.586C227.902 353.492 227.589 353.472 227.286 353.529C227.01 353.586 226.754 353.715 226.545 353.905C226.329 354.11 226.172 354.37 226.093 354.657C225.993 354.957 225.986 355.28 226.072 355.583C226.159 355.869 226.318 356.128 226.534 356.334C226.754 356.543 227.02 356.697 227.31 356.786L227.44 356.824Z" fill="black"/>
<path d="M236.039 347.69C235.826 348.316 235.512 348.903 235.111 349.429C234.791 349.862 234.355 350.196 233.854 350.394C233.371 350.567 232.841 350.559 232.363 350.372L232.222 350.32C232.164 350.298 232.108 350.272 232.054 350.241L232.751 348.312L232.86 348.35C233.022 348.413 233.198 348.432 233.369 348.405C233.541 348.378 233.702 348.307 233.838 348.197C234.214 347.87 234.489 347.441 234.631 346.963C234.818 346.548 234.891 346.091 234.843 345.639C234.821 345.499 234.762 345.368 234.672 345.259C234.582 345.15 234.464 345.067 234.331 345.02C234.251 344.988 234.166 344.973 234.079 344.975C233.993 344.977 233.908 344.996 233.83 345.032C233.605 345.175 233.417 345.369 233.281 345.599C232.976 346.063 232.697 346.544 232.447 347.041C232.168 347.576 231.822 348.074 231.416 348.521C231.125 348.849 230.741 349.081 230.316 349.187C229.877 349.273 229.423 349.23 229.007 349.063C228.478 348.897 228.028 348.541 227.743 348.065C227.478 347.575 227.355 347.022 227.388 346.467C227.421 345.793 227.558 345.128 227.796 344.497C227.997 343.914 228.294 343.368 228.673 342.882C228.984 342.47 229.388 342.138 229.853 341.914C230.062 341.819 230.287 341.766 230.517 341.759C230.747 341.752 230.975 341.791 231.189 341.874L231.323 341.919C231.389 341.946 231.451 341.981 231.509 342.024L230.805 343.969C230.586 343.875 230.341 343.864 230.115 343.938C229.903 344.023 229.723 344.171 229.598 344.362C229.435 344.601 229.304 344.86 229.208 345.133C228.861 346.127 228.948 346.705 229.494 346.902C229.567 346.932 229.646 346.946 229.726 346.942C229.805 346.938 229.883 346.917 229.953 346.88C230.164 346.738 230.338 346.549 230.461 346.327C230.652 346.039 230.907 345.607 231.219 345.035C231.521 344.45 231.891 343.902 232.322 343.403C232.612 343.054 233.005 342.805 233.445 342.692C233.911 342.61 234.39 342.661 234.828 342.841C235.39 343.008 235.873 343.373 236.189 343.868C236.469 344.377 236.594 344.958 236.546 345.537C236.482 346.276 236.312 347.001 236.039 347.69Z" fill="black"/>
<path d="M239.186 339.549C238.941 340.245 238.456 340.832 237.819 341.206C237.506 341.353 237.164 341.426 236.818 341.42C236.472 341.414 236.132 341.328 235.824 341.17C235.268 340.963 234.807 340.56 234.527 340.037C234.273 339.43 234.211 338.76 234.349 338.117C234.539 337.112 234.847 336.134 235.267 335.202L234.532 334.893C234.387 334.819 234.227 334.777 234.064 334.771C233.901 334.764 233.739 334.793 233.588 334.855C233.264 335.048 233.022 335.351 232.903 335.708C232.742 336.034 232.698 336.405 232.778 336.76C232.82 336.908 232.896 337.044 233 337.157C233.105 337.271 233.235 337.357 233.379 337.411L233.489 337.456L232.618 339.539C232.562 339.515 232.504 339.493 232.446 339.475C232.423 339.471 232.401 339.466 232.38 339.458L232.368 339.436C232.028 339.301 231.729 339.078 231.503 338.79C231.277 338.503 231.131 338.16 231.08 337.797C230.957 336.847 231.112 335.881 231.526 335.016C231.998 333.903 232.567 333.136 233.237 332.726C233.579 332.522 233.967 332.407 234.366 332.393C234.764 332.379 235.159 332.465 235.515 332.645L239.215 334.203C239.332 334.266 239.469 334.281 239.597 334.247C239.65 334.225 239.697 334.193 239.736 334.152C239.775 334.111 239.805 334.062 239.823 334.008C239.893 333.845 239.912 333.665 239.878 333.49L241.202 334.046C241.226 334.272 241.213 334.501 241.165 334.723C241.115 334.982 241.039 335.236 240.936 335.479C240.819 335.782 240.652 336.063 240.442 336.311C240.289 336.478 240.084 336.588 239.861 336.624C239.615 336.656 239.365 336.637 239.126 336.57C239.303 336.835 239.426 337.133 239.49 337.446C239.556 337.777 239.565 338.117 239.517 338.451C239.456 338.83 239.345 339.199 239.186 339.549ZM238.053 338.145C238.186 337.855 238.23 337.533 238.178 337.218C238.119 336.929 237.975 336.663 237.765 336.454C237.542 336.218 237.272 336.033 236.972 335.91L236.401 335.666C236.172 336.18 235.998 336.716 235.881 337.265C235.8 337.602 235.822 337.955 235.945 338.279C236.075 338.544 236.301 338.749 236.577 338.853C236.71 338.921 236.856 338.959 237.005 338.966C237.153 338.972 237.302 338.947 237.44 338.891C237.732 338.731 237.952 338.466 238.057 338.151L238.053 338.145Z" fill="black"/>
<path d="M242.579 331.427L236.56 328.492L235.754 330.137L234.116 329.344L235.794 325.894L236.847 326.277C236.582 325.938 236.423 325.528 236.393 325.099C236.36 324.59 236.469 324.081 236.708 323.63C236.837 323.327 237.028 323.053 237.269 322.828C237.51 322.603 237.795 322.431 238.107 322.323C238.736 322.139 239.411 322.208 239.989 322.516C240.138 322.589 240.288 322.666 240.435 322.743C240.581 322.821 240.732 322.906 240.882 323.006L239.992 324.837L239.602 324.644C239.412 324.551 239.203 324.503 238.991 324.506C238.79 324.511 238.593 324.568 238.421 324.673C238.227 324.8 238.075 324.98 237.983 325.192C237.873 325.398 237.836 325.635 237.879 325.865C237.922 326.089 238.026 326.296 238.178 326.465C238.341 326.652 238.54 326.802 238.764 326.907L243.619 329.269L242.579 331.427ZM241.76 333.107L240.178 332.349L243.497 325.525L245.079 326.283L241.76 333.107Z" fill="black"/>
<path d="M247.004 322.635L241.145 319.376L240.255 320.977L238.667 320.097L240.53 316.745L241.572 317.182C241.323 316.83 241.186 316.41 241.181 315.978C241.178 315.469 241.314 314.968 241.576 314.531C241.721 314.231 241.927 313.964 242.181 313.749C242.435 313.534 242.732 313.375 243.052 313.283C243.692 313.135 244.364 313.243 244.925 313.586C245.07 313.668 245.216 313.751 245.358 313.836C245.5 313.92 245.643 314.02 245.789 314.127L244.785 315.895L244.41 315.694C244.226 315.589 244.02 315.531 243.809 315.522C243.607 315.515 243.407 315.562 243.229 315.658C243.03 315.775 242.868 315.947 242.762 316.152C242.644 316.352 242.594 316.586 242.621 316.817C242.655 317.043 242.747 317.256 242.89 317.434C243.041 317.628 243.231 317.789 243.448 317.907L248.17 320.53L247.004 322.635ZM246.095 324.267L244.551 323.407L248.23 316.78L249.774 317.64L246.095 324.267Z" fill="black"/>
<path d="M253.326 312.166C252.919 312.854 252.337 313.422 251.638 313.811C251.006 314.153 250.288 314.302 249.572 314.241C248.811 314.174 248.079 313.918 247.441 313.497L247.172 313.328C246.509 312.929 245.957 312.371 245.565 311.704C245.21 311.083 245.041 310.374 245.079 309.66C245.132 308.871 245.391 308.11 245.83 307.452C246.243 306.764 246.828 306.195 247.528 305.802C248.157 305.458 248.874 305.303 249.59 305.358C250.354 305.428 251.089 305.687 251.729 306.11L251.998 306.279C252.663 306.68 253.217 307.239 253.611 307.908C253.969 308.528 254.136 309.24 254.092 309.955C254.031 310.745 253.767 311.507 253.326 312.166ZM251.987 311.321C252.113 311.131 252.194 310.915 252.225 310.688C252.256 310.462 252.235 310.232 252.165 310.015C252.008 309.523 251.671 309.109 251.22 308.856L249.714 307.903C249.292 307.607 248.773 307.481 248.262 307.551C248.038 307.583 247.824 307.664 247.636 307.789C247.447 307.914 247.289 308.079 247.172 308.272C247.049 308.463 246.971 308.679 246.941 308.904C246.911 309.129 246.931 309.358 247 309.574C247.154 310.068 247.49 310.485 247.94 310.74L249.449 311.691C249.873 311.989 250.395 312.114 250.908 312.041C251.13 312.007 251.341 311.926 251.528 311.801C251.714 311.677 251.871 311.513 251.987 311.321Z" fill="black"/>
<path d="M258.057 304.77L249.75 298.845L248.084 301.18L246.606 300.124L249.682 295.806L259.471 302.789L258.057 304.77ZM256.391 307.105L254.954 306.079L259.561 299.616L261.002 300.644L256.391 307.105Z" fill="black"/>
<path d="M263.95 296.887L255.99 290.492L254.193 292.728L252.773 291.592L256.096 287.456L265.468 294.987L263.95 296.887ZM262.153 299.123L260.774 298.017L265.746 291.829L267.127 292.946L262.153 299.123Z" fill="black"/>
<path d="M271.113 288.694C270.592 289.301 269.921 289.76 269.166 290.023C268.485 290.252 267.752 290.278 267.057 290.097C266.318 289.898 265.64 289.521 265.081 288.999L264.846 288.788C264.261 288.281 263.812 287.636 263.542 286.911C263.3 286.24 263.254 285.513 263.411 284.817C263.597 284.048 263.982 283.342 264.528 282.77C265.051 282.162 265.723 281.7 266.478 281.431C267.159 281.2 267.893 281.171 268.59 281.347C269.33 281.548 270.008 281.928 270.566 282.454L270.801 282.665C271.388 283.173 271.838 283.82 272.111 284.546C272.36 285.219 272.404 285.95 272.237 286.647C272.044 287.414 271.656 288.119 271.113 288.694ZM269.935 287.632C270.091 287.466 270.208 287.266 270.277 287.049C270.347 286.832 270.367 286.601 270.337 286.375C270.263 285.864 270.001 285.398 269.601 285.071L268.277 283.875C267.912 283.511 267.423 283.299 266.908 283.28C266.683 283.278 266.46 283.324 266.254 283.415C266.048 283.506 265.864 283.64 265.714 283.807C265.564 283.975 265.451 284.173 265.383 284.387C265.315 284.602 265.294 284.828 265.32 285.052C265.388 285.565 265.648 286.032 266.047 286.361L267.377 287.57C267.745 287.934 268.236 288.146 268.753 288.162C268.977 288.165 269.2 288.119 269.404 288.027C269.609 287.935 269.791 287.8 269.938 287.631L269.935 287.632Z" fill="black"/>
<path d="M281.114 273.533L279.74 271.965L282.917 269.188L284.298 270.774L281.114 273.533Z" fill="black"/>
<path d="M297.193 265.021L290.742 255.603L294.306 253.162C294.809 252.815 295.361 252.547 295.945 252.366C296.481 252.202 297.046 252.15 297.603 252.212C298.163 252.279 298.699 252.472 299.174 252.776C299.71 253.129 300.168 253.588 300.519 254.126L302.13 256.481C302.503 257.005 302.764 257.599 302.899 258.227C303.005 258.772 302.986 259.334 302.843 259.87C302.693 260.411 302.439 260.918 302.096 261.362C301.719 261.848 301.266 262.269 300.754 262.611L297.193 265.021ZM298.229 261.869L299.427 261.049C299.753 260.84 300.034 260.569 300.255 260.252C300.45 259.969 300.537 259.625 300.502 259.283C300.441 258.844 300.268 258.428 299.999 258.075L298.219 255.473C297.988 255.097 297.665 254.787 297.281 254.572C296.973 254.412 296.619 254.364 296.28 254.435C295.902 254.524 295.546 254.686 295.231 254.912L294.031 255.73L298.229 261.869Z" fill="black"/>
<path d="M308.219 257.798L304.777 252.057L302.32 253.532L301.385 251.973L305.933 249.247L310.315 256.557L308.219 257.798ZM305.761 259.27L304.846 257.748L311.655 253.669L312.569 255.191L305.761 259.27ZM303.058 249.037L302.055 247.366L303.773 246.337L304.773 248.01L303.058 249.037Z" fill="black"/>
<path d="M317.307 252.871C316.727 253.186 316.099 253.405 315.448 253.52C314.918 253.619 314.37 253.569 313.866 253.374C313.393 253.173 313.01 252.807 312.786 252.345C312.766 252.307 312.742 252.263 312.715 252.214C312.687 252.159 312.663 252.101 312.643 252.043L314.463 251.097L314.518 251.2C314.595 251.355 314.711 251.487 314.855 251.584C314.999 251.68 315.166 251.737 315.339 251.749C315.842 251.765 316.339 251.636 316.772 251.378C317.192 251.196 317.557 250.904 317.828 250.534C317.906 250.416 317.951 250.28 317.959 250.139C317.966 249.998 317.936 249.858 317.871 249.732C317.833 249.654 317.78 249.585 317.714 249.528C317.649 249.471 317.573 249.428 317.49 249.401C317.23 249.353 316.961 249.368 316.708 249.445C316.171 249.58 315.642 249.745 315.125 249.941C314.557 250.146 313.965 250.277 313.364 250.331C312.927 250.373 312.488 250.285 312.102 250.077C311.722 249.84 311.418 249.499 311.225 249.095C310.946 248.616 310.853 248.05 310.964 247.507C311.102 246.959 311.393 246.462 311.803 246.074C312.283 245.599 312.836 245.204 313.441 244.903C313.983 244.61 314.571 244.408 315.179 244.307C315.685 244.221 316.204 244.257 316.692 244.414C316.91 244.485 317.112 244.599 317.285 244.749C317.458 244.899 317.6 245.083 317.701 245.288L317.768 245.413C317.799 245.477 317.822 245.545 317.836 245.614L316.001 246.569C315.903 246.353 315.729 246.18 315.513 246.083C315.298 246.002 315.065 245.987 314.842 246.042C314.563 246.106 314.294 246.208 314.042 246.345C313.121 246.842 312.785 247.325 313.051 247.839C313.086 247.911 313.135 247.974 313.196 248.025C313.257 248.076 313.328 248.114 313.404 248.136C313.652 248.168 313.904 248.145 314.142 248.069C314.48 247.988 314.958 247.843 315.576 247.633C316.195 247.409 316.838 247.257 317.492 247.179C317.943 247.12 318.401 247.204 318.803 247.419C319.2 247.674 319.517 248.038 319.715 248.466C320.008 248.972 320.111 249.565 320.006 250.14C319.865 250.704 319.562 251.214 319.133 251.607C318.59 252.116 317.975 252.542 317.307 252.871Z" fill="black"/>
<path d="M326.368 248.483C325.619 248.853 324.79 249.033 323.955 249.008C323.263 248.966 322.604 248.698 322.08 248.246C321.505 247.736 321.052 247.102 320.756 246.392L320.57 245.981C320.23 245.27 320.083 244.482 320.143 243.696C320.206 242.986 320.481 242.312 320.933 241.761C321.445 241.149 322.098 240.67 322.835 240.363C323.498 240.045 324.227 239.89 324.962 239.912C325.604 239.941 326.225 240.151 326.753 240.518C327.308 240.922 327.743 241.469 328.011 242.101L328.494 243.182L323.212 245.55L323.418 245.931C323.593 246.432 323.96 246.843 324.438 247.074C324.654 247.157 324.886 247.194 325.117 247.183C325.348 247.172 325.575 247.112 325.782 247.009C326.002 246.931 326.204 246.811 326.377 246.656C326.551 246.5 326.691 246.311 326.792 246.101C326.861 245.882 326.885 245.652 326.862 245.423C326.84 245.195 326.772 244.973 326.663 244.772L328.748 243.84C329.018 244.405 329.11 245.038 329.011 245.657C328.896 246.257 328.608 246.811 328.182 247.25C327.666 247.778 327.049 248.197 326.368 248.483ZM322.675 244.272L325.701 242.916L325.598 242.726C325.478 242.444 325.289 242.197 325.049 242.007C324.825 241.834 324.559 241.726 324.279 241.693C323.981 241.663 323.682 241.715 323.412 241.842C323.12 241.964 322.872 242.171 322.7 242.436C322.541 242.688 322.45 242.978 322.436 243.276C322.42 243.579 322.477 243.882 322.602 244.158L322.675 244.272Z" fill="black"/>
<path d="M331.773 245.947L328.759 237.975L330.63 237.267L331.175 238.149C331.27 237.693 331.497 237.276 331.83 236.949C332.201 236.592 332.644 236.318 333.13 236.147C333.862 235.822 334.693 235.801 335.441 236.088C335.799 236.253 336.118 236.492 336.378 236.789C336.637 237.086 336.832 237.434 336.948 237.811L338.994 243.221L336.683 244.094L334.835 239.177C334.71 238.757 334.439 238.394 334.072 238.154C333.906 238.069 333.723 238.023 333.536 238.018C333.349 238.013 333.164 238.051 332.994 238.127C332.74 238.217 332.52 238.381 332.361 238.598C332.2 238.811 332.102 239.065 332.079 239.331C332.062 239.631 332.111 239.932 332.224 240.212L334.051 245.088L331.773 245.947ZM328.809 236.5C328.675 236.095 328.611 235.67 328.619 235.244C328.621 234.859 328.725 234.482 328.919 234.15C329.117 233.827 329.422 233.583 329.78 233.46C330.125 233.319 330.498 233.263 330.869 233.295C331.184 233.33 331.497 233.382 331.807 233.45C332.068 233.52 332.344 233.511 332.6 233.425C332.708 233.39 332.806 233.331 332.887 233.252C332.968 233.173 333.03 233.077 333.068 232.971C333.146 232.727 333.159 232.467 333.105 232.217L334.111 231.84C334.239 232.24 334.305 232.658 334.303 233.078C334.299 233.461 334.194 233.836 333.999 234.165C333.801 234.496 333.492 234.746 333.126 234.871C332.782 235.007 332.41 235.059 332.042 235.021C331.693 234.979 331.376 234.929 331.083 234.865C330.822 234.798 330.547 234.806 330.29 234.89C330.19 234.924 330.099 234.98 330.024 235.055C329.949 235.13 329.892 235.221 329.858 235.321C329.772 235.578 329.757 235.854 329.813 236.119L328.809 236.5Z" fill="black"/>
<path d="M344.691 241.557C343.938 241.811 343.132 241.863 342.353 241.707C341.649 241.556 341.005 241.203 340.499 240.692C339.962 240.148 339.57 239.478 339.358 238.744L339.263 238.44C339.016 237.707 338.957 236.923 339.093 236.161C339.225 235.461 339.555 234.813 340.043 234.293C340.595 233.726 341.286 233.314 342.047 233.099C342.807 232.841 343.621 232.787 344.409 232.94C345.116 233.087 345.764 233.438 346.273 233.95C346.809 234.497 347.202 235.169 347.417 235.904L347.509 236.209C347.758 236.944 347.817 237.73 347.682 238.495C347.553 239.2 347.219 239.851 346.722 240.368C346.159 240.933 345.459 241.343 344.691 241.557ZM344.221 240.045C344.438 239.982 344.638 239.872 344.807 239.722C344.976 239.573 345.109 239.387 345.197 239.179C345.397 238.704 345.409 238.17 345.23 237.686L344.709 235.975C344.582 235.476 344.269 235.044 343.835 234.766C343.642 234.65 343.427 234.576 343.203 234.549C342.98 234.522 342.753 234.542 342.538 234.609C342.323 234.676 342.125 234.788 341.956 234.937C341.788 235.086 341.653 235.269 341.56 235.474C341.359 235.952 341.346 236.487 341.523 236.974L342.042 238.681C342.17 239.182 342.486 239.615 342.924 239.89C343.116 240.007 343.331 240.081 343.554 240.106C343.777 240.131 344.003 240.107 344.216 240.035L344.221 240.045Z" fill="black"/>
<path d="M361.019 233.589L360.634 231.539L364.779 230.764L365.163 232.811L361.019 233.589Z" fill="black"/>
<path d="M381.914 234.414C381.179 234.508 380.435 234.338 379.813 233.936C379.541 233.722 379.322 233.449 379.172 233.137C379.022 232.825 378.945 232.484 378.947 232.138C378.882 231.549 379.036 230.957 379.378 230.473C379.807 229.961 380.386 229.597 381.033 229.431C382.017 229.145 383.031 228.978 384.054 228.933L384.01 228.15C384.01 227.987 383.975 227.826 383.907 227.677C383.84 227.529 383.741 227.396 383.618 227.289C383.301 227.086 382.92 227.005 382.547 227.061C382.185 227.065 381.834 227.193 381.554 227.424C381.44 227.528 381.353 227.657 381.299 227.801C381.245 227.945 381.226 228.1 381.244 228.253L381.25 228.37L378.988 228.519C378.987 228.457 378.981 228.396 378.97 228.335C378.959 228.317 378.949 228.298 378.94 228.279L378.926 228.254C378.895 227.89 378.961 227.523 379.117 227.192C379.274 226.861 379.515 226.578 379.816 226.371C380.61 225.833 381.542 225.537 382.501 225.518C383.711 225.437 384.646 225.601 385.316 226.013C385.653 226.227 385.93 226.521 386.121 226.87C386.313 227.219 386.414 227.611 386.414 228.009L386.714 232.008C386.713 232.14 386.762 232.268 386.851 232.365C386.893 232.403 386.943 232.431 386.998 232.447C387.052 232.464 387.109 232.469 387.165 232.462C387.343 232.449 387.513 232.386 387.654 232.278L387.75 233.71C387.561 233.833 387.354 233.926 387.137 233.985C386.883 234.058 386.623 234.104 386.36 234.122C386.035 234.155 385.708 234.132 385.391 234.053C385.171 233.998 384.977 233.869 384.84 233.689C384.704 233.481 384.608 233.249 384.56 233.006C384.405 233.288 384.197 233.537 383.948 233.739C383.681 233.948 383.382 234.11 383.061 234.218C382.689 234.334 382.303 234.4 381.914 234.414ZM382.645 232.782C382.962 232.769 383.268 232.664 383.526 232.48C383.761 232.3 383.938 232.055 384.037 231.776C384.147 231.471 384.19 231.145 384.163 230.821L384.121 230.191C383.559 230.215 383.003 230.301 382.46 230.446C382.123 230.523 381.817 230.701 381.583 230.956C381.405 231.192 381.323 231.487 381.355 231.781C381.354 231.93 381.386 232.078 381.447 232.213C381.509 232.349 381.599 232.47 381.711 232.568C381.988 232.754 382.325 232.829 382.654 232.777L382.645 232.782Z" fill="black"/>
<path d="M389.012 233.814L388.915 222.372L394.351 222.324C394.949 222.312 395.538 222.462 396.057 222.757C396.565 223.049 396.99 223.464 397.294 223.965C397.604 224.47 397.767 225.052 397.766 225.645L397.767 225.91C397.778 226.513 397.626 227.108 397.326 227.632C397.035 228.146 396.617 228.577 396.112 228.884C395.6 229.197 395.013 229.362 394.414 229.362L391.532 229.386L391.576 233.797L389.012 233.814ZM391.513 227.4L393.68 227.383C393.947 227.386 394.209 227.316 394.439 227.183C394.655 227.05 394.832 226.861 394.951 226.637C395.077 226.388 395.14 226.112 395.133 225.833C395.134 225.569 395.069 225.309 394.943 225.077C394.822 224.859 394.648 224.675 394.437 224.543C394.203 224.403 393.933 224.333 393.659 224.342L391.493 224.363L391.513 227.4Z" fill="black"/>
<path d="M398.858 233.777L399.426 222.351L404.863 222.64C405.46 222.661 406.04 222.844 406.54 223.17C407.03 223.491 407.43 223.931 407.703 224.449C407.982 224.972 408.112 225.562 408.079 226.153L408.065 226.419C408.041 227.021 407.853 227.606 407.523 228.111C407.203 228.608 406.76 229.015 406.238 229.292C405.709 229.573 405.113 229.702 404.516 229.665L401.621 229.531L401.402 233.927L398.858 233.777ZM401.723 227.509L403.89 227.617C404.154 227.635 404.419 227.581 404.656 227.461C404.876 227.343 405.06 227.167 405.188 226.952C405.332 226.713 405.411 226.441 405.419 226.162C405.435 225.9 405.384 225.637 405.272 225.399C405.165 225.168 405 224.97 404.792 224.823C404.567 224.668 404.302 224.582 404.029 224.574L401.862 224.466L401.723 227.509Z" fill="black"/>
<path d="M412.489 234.896C411.829 234.837 411.183 234.671 410.578 234.403C410.082 234.193 409.655 233.848 409.346 233.407C409.063 232.978 408.945 232.461 409.017 231.952L409.033 231.803C409.041 231.742 409.053 231.682 409.068 231.622L411.109 231.847L411.095 231.963C411.073 232.135 411.096 232.31 411.163 232.47C411.229 232.63 411.337 232.77 411.474 232.875C411.886 233.156 412.368 233.315 412.866 233.333C413.317 233.415 413.782 233.376 414.212 233.219C414.344 233.163 414.457 233.072 414.541 232.955C414.625 232.839 414.675 232.702 414.687 232.56C414.699 232.474 414.693 232.387 414.67 232.304C414.647 232.22 414.608 232.143 414.554 232.075C414.363 231.889 414.13 231.752 413.875 231.676C413.354 231.489 412.823 231.333 412.284 231.208C411.697 231.065 411.132 230.845 410.601 230.556C410.217 230.347 409.904 230.027 409.703 229.639C409.517 229.231 409.453 228.778 409.519 228.335C409.556 227.782 409.794 227.262 410.189 226.872C410.603 226.501 411.111 226.252 411.658 226.152C412.321 226.026 413 226.004 413.67 226.085C414.284 226.147 414.885 226.306 415.449 226.556C415.935 226.768 416.361 227.098 416.688 227.516C416.831 227.696 416.935 227.902 416.997 228.123C417.058 228.344 417.074 228.575 417.045 228.803L417.029 228.945C417.018 229.014 416.999 229.083 416.973 229.148L414.917 228.924C414.955 228.689 414.906 228.449 414.781 228.247C414.648 228.063 414.461 227.923 414.246 227.846C413.978 227.746 413.697 227.68 413.412 227.652C412.372 227.54 411.823 227.772 411.768 228.342C411.757 228.42 411.763 228.501 411.785 228.577C411.807 228.653 411.846 228.724 411.898 228.784C412.085 228.949 412.306 229.07 412.546 229.14C412.875 229.256 413.352 229.402 413.988 229.57C414.626 229.728 415.244 229.958 415.83 230.257C416.239 230.458 416.574 230.781 416.789 231.182C416.977 231.616 417.037 232.093 416.965 232.56C416.929 233.143 416.684 233.695 416.275 234.113C415.848 234.506 415.312 234.763 414.738 234.85C413.995 234.976 413.237 234.992 412.489 234.896Z" fill="black"/>
<path d="M430.832 234.132L431.297 232.103L435.412 233.042L434.944 235.072L430.832 234.132Z" fill="black"/>
<path d="M447.557 242.297L448.199 240.499L450.418 241.285L452.979 234.081L450.765 233.296L451.407 231.498L458.292 233.937L457.65 235.735L455.435 234.948L452.874 242.152L455.09 242.935L454.448 244.733L447.557 242.297Z" fill="black"/>
<path d="M456.647 245.577L459.952 237.721L461.796 238.499L461.585 239.512C461.968 239.247 462.42 239.101 462.886 239.092C463.401 239.089 463.911 239.196 464.382 239.405C465.13 239.674 465.742 240.228 466.084 240.946C466.23 241.311 466.298 241.704 466.281 242.098C466.265 242.491 466.166 242.877 465.991 243.23L463.75 248.564L461.476 247.607L463.511 242.766C463.711 242.376 463.765 241.926 463.662 241.5C463.6 241.323 463.5 241.162 463.368 241.029C463.235 240.897 463.075 240.796 462.898 240.735C462.653 240.626 462.381 240.593 462.117 240.64C461.859 240.697 461.623 240.825 461.433 241.009C461.214 241.215 461.043 241.467 460.933 241.747L458.917 246.541L456.647 245.577Z" fill="black"/>
<path d="M470.443 251.962C469.59 251.607 468.875 250.983 468.408 250.186C468.037 249.499 468.118 248.633 468.63 247.611L470.289 244.224L468.251 243.227L469.047 241.588L471.157 242.622L473.118 240.555L474.479 241.224L473.284 243.663L476.518 245.247L475.722 246.886L472.488 245.302L470.932 248.477C470.803 248.722 470.739 248.997 470.746 249.274C470.765 249.544 470.875 249.798 471.059 249.996C471.324 250.27 471.638 250.49 471.986 250.645C472.27 250.783 472.571 250.884 472.881 250.944C473.149 250.997 473.422 251.022 473.696 251.02L472.911 252.621C472.514 252.62 472.119 252.562 471.738 252.448C471.292 252.327 470.858 252.164 470.443 251.962Z" fill="black"/>
<path d="M477.787 255.878C477.044 255.496 476.406 254.936 475.931 254.248C475.551 253.668 475.373 252.979 475.425 252.288C475.495 251.523 475.735 250.783 476.127 250.123L476.349 249.728C476.716 249.031 477.258 248.443 477.922 248.02C478.53 247.651 479.233 247.472 479.943 247.506C480.74 247.553 481.515 247.792 482.201 248.201C482.852 248.545 483.41 249.04 483.831 249.644C484.188 250.178 484.386 250.803 484.4 251.445C484.403 252.131 484.219 252.805 483.868 253.394L483.287 254.425L478.273 251.604L478.071 251.976C477.924 252.195 477.822 252.442 477.772 252.701C477.722 252.96 477.723 253.227 477.777 253.485C477.838 253.708 477.946 253.916 478.092 254.095C478.238 254.274 478.42 254.421 478.625 254.527C478.819 254.657 479.036 254.747 479.264 254.794C479.492 254.84 479.728 254.841 479.956 254.796C480.173 254.721 480.373 254.604 480.544 254.45C480.714 254.296 480.852 254.109 480.949 253.901L482.938 255.024C482.643 255.582 482.184 256.035 481.623 256.323C481.072 256.59 480.454 256.69 479.846 256.609C479.119 256.503 478.419 256.255 477.787 255.878ZM478.973 250.4L481.868 252.026L481.971 251.837C482.129 251.572 482.217 251.271 482.225 250.963C482.232 250.681 482.16 250.402 482.017 250.16C481.864 249.904 481.646 249.695 481.383 249.554C481.112 249.392 480.798 249.316 480.483 249.335C480.185 249.355 479.898 249.455 479.651 249.623C479.397 249.791 479.187 250.017 479.04 250.283L478.973 250.4Z" fill="black"/>
<path d="M482.686 258.487L483.637 256.998L490.027 261.091L489.076 262.576L482.686 258.487ZM484.258 259.493L487.871 253.849L486.329 252.859L487.309 251.33L490.538 253.397L490.031 254.4C490.399 254.175 490.826 254.066 491.256 254.085C491.766 254.112 492.258 254.278 492.678 254.568C492.969 254.731 493.222 254.954 493.421 255.221C493.62 255.489 493.76 255.796 493.832 256.122C493.938 256.768 493.786 257.43 493.407 257.964C493.318 258.105 493.227 258.243 493.131 258.379C493.035 258.515 492.933 258.655 492.819 258.794L491.108 257.701L491.343 257.337C491.457 257.16 491.527 256.959 491.55 256.749C491.57 256.548 491.535 256.345 491.45 256.162C491.347 255.954 491.186 255.781 490.987 255.662C490.794 255.533 490.564 255.471 490.332 255.487C490.105 255.505 489.887 255.584 489.701 255.715C489.493 255.855 489.317 256.037 489.183 256.249L486.269 260.798L484.258 259.493Z" fill="black"/>
<path d="M491.427 264.169L492.463 262.735L498.691 267.243L497.657 268.672L491.427 264.169ZM493.141 265.409L497.064 259.981L495.364 258.75L496.427 257.277L498.128 258.508L498.608 257.845C498.914 257.394 499.358 257.056 499.873 256.88C500.392 256.718 500.947 256.708 501.471 256.852C502.086 257.019 502.663 257.301 503.173 257.683C503.456 257.9 503.72 258.14 503.964 258.401C504.209 258.633 504.418 258.901 504.583 259.195L503.661 260.475C503.538 260.293 503.402 260.12 503.256 259.956C503.105 259.782 502.935 259.624 502.749 259.488C502.494 259.299 502.216 259.143 501.922 259.024C501.678 258.918 501.406 258.895 501.148 258.957C500.857 259.055 500.609 259.251 500.448 259.513L500.127 259.956L502.598 261.747L501.533 263.217L499.061 261.431L495.138 266.859L493.141 265.409Z" fill="black"/>
<path d="M501.069 271.596C500.471 271.166 500.045 270.54 499.864 269.827C499.81 269.486 499.835 269.138 499.937 268.809C500.039 268.479 500.214 268.177 500.45 267.926C500.805 267.451 501.32 267.121 501.901 266.998C502.559 266.919 503.227 267.044 503.812 267.357C504.727 267.82 505.584 268.39 506.365 269.054L506.87 268.435C506.981 268.316 507.066 268.174 507.117 268.019C507.168 267.864 507.185 267.699 507.167 267.537C507.073 267.181 506.855 266.869 506.552 266.66C506.283 266.414 505.94 266.267 505.577 266.243C505.423 266.242 505.271 266.278 505.133 266.346C504.995 266.415 504.875 266.516 504.783 266.639L504.708 266.732L502.962 265.312C503.001 265.265 503.038 265.215 503.072 265.164L503.105 265.106L503.133 265.091C503.358 264.803 503.656 264.58 503.996 264.445C504.336 264.31 504.706 264.267 505.067 264.32C506.014 264.467 506.898 264.887 507.61 265.528C508.557 266.285 509.133 267.049 509.339 267.82C509.439 268.205 509.441 268.609 509.343 268.995C509.246 269.381 509.053 269.736 508.782 270.028L506.22 273.116C506.129 273.211 506.078 273.337 506.075 273.468C506.079 273.525 506.094 273.581 506.121 273.631C506.148 273.681 506.186 273.725 506.232 273.759C506.37 273.871 506.538 273.94 506.715 273.958L505.808 275.072C505.585 275.033 505.37 274.959 505.17 274.853C504.936 274.732 504.715 274.588 504.51 274.422C504.251 274.226 504.028 273.986 503.85 273.715C503.727 273.525 503.672 273.299 503.693 273.073C503.734 272.828 503.822 272.593 503.952 272.381C503.649 272.476 503.33 272.511 503.013 272.485C502.675 272.456 502.345 272.37 502.036 272.23C501.686 272.064 501.361 271.851 501.069 271.596ZM502.714 270.909C502.953 271.118 503.249 271.25 503.564 271.289C503.859 271.318 504.156 271.261 504.419 271.125C504.707 270.976 504.96 270.768 505.162 270.515L505.561 270.021C505.133 269.656 504.667 269.339 504.171 269.074C503.871 268.902 503.527 268.823 503.183 268.85C502.891 268.902 502.631 269.062 502.454 269.3C502.352 269.409 502.275 269.539 502.227 269.68C502.179 269.821 502.161 269.971 502.175 270.12C502.253 270.441 502.45 270.72 502.726 270.902L502.714 270.909Z" fill="black"/>
<path d="M509.369 278.673C508.981 278.323 508.666 277.898 508.445 277.424C508.224 276.95 508.1 276.436 508.081 275.914C508.066 275.386 508.153 274.861 508.339 274.367C508.538 273.836 508.839 273.349 509.225 272.933L509.598 272.526C509.975 272.101 510.432 271.754 510.943 271.506C511.417 271.273 511.934 271.139 512.462 271.109C512.981 271.079 513.501 271.154 513.991 271.328C514.496 271.504 514.958 271.783 515.349 272.147L515.608 272.382C516.125 272.826 516.52 273.396 516.756 274.036C516.959 274.606 516.997 275.222 516.864 275.812C516.711 276.442 516.395 277.02 515.947 277.489L514.365 276.053C514.64 275.776 514.854 275.445 514.993 275.08C515.09 274.81 515.093 274.514 515 274.242C514.895 273.952 514.718 273.694 514.486 273.492C514.328 273.341 514.14 273.224 513.935 273.15C513.73 273.075 513.511 273.045 513.293 273.059C512.763 273.127 512.281 273.402 511.952 273.824L510.754 275.144C510.384 275.505 510.156 275.987 510.112 276.502C510.111 276.738 510.163 276.97 510.265 277.183C510.367 277.396 510.515 277.582 510.699 277.73C510.915 277.942 511.181 278.096 511.473 278.178C511.75 278.243 512.041 278.208 512.295 278.081C512.644 277.901 512.953 277.653 513.204 277.353L514.779 278.776C514.341 279.283 513.775 279.664 513.141 279.878C512.561 280.063 511.939 280.07 511.354 279.9C510.713 279.702 510.125 279.36 509.637 278.9L509.369 278.673Z" fill="black"/>
<path d="M516.691 285.706C516.081 285.132 515.622 284.418 515.354 283.625C515.153 282.963 515.173 282.253 515.411 281.603C515.689 280.883 516.124 280.235 516.685 279.706L517.007 279.391C517.551 278.823 518.235 278.408 518.99 278.187C519.68 278.002 520.41 278.029 521.084 278.266C521.838 278.532 522.516 278.976 523.062 279.561C523.592 280.071 523.992 280.701 524.227 281.399C524.425 282.009 524.444 282.664 524.282 283.284C524.096 283.945 523.732 284.542 523.23 285.01L522.387 285.839L518.352 281.741L518.044 282.044C517.842 282.214 517.676 282.422 517.556 282.657C517.435 282.891 517.363 283.147 517.343 283.41C517.34 283.642 517.386 283.871 517.476 284.084C517.567 284.296 517.7 284.488 517.869 284.646C518.017 284.826 518.2 284.974 518.407 285.082C518.613 285.19 518.839 285.256 519.071 285.275C519.3 285.265 519.525 285.207 519.732 285.107C519.938 285.007 520.122 284.865 520.272 284.691L521.875 286.317C521.44 286.768 520.875 287.073 520.258 287.19C519.655 287.293 519.034 287.216 518.474 286.969C517.801 286.671 517.195 286.241 516.691 285.706ZM519.347 280.776L521.676 283.147L521.831 282.995C522.056 282.784 522.222 282.519 522.315 282.226C522.399 281.959 522.408 281.675 522.343 281.404C522.26 281.11 522.102 280.843 521.884 280.629C521.666 280.415 521.396 280.262 521.1 280.184C520.807 280.123 520.503 280.139 520.219 280.233C519.929 280.323 519.665 280.482 519.449 280.697L519.347 280.776Z" fill="black"/>
<path d="M523.226 292.717C522.781 292.229 522.417 291.673 522.147 291.07C521.924 290.579 521.841 290.036 521.909 289.501C521.991 288.995 522.254 288.535 522.649 288.207L522.76 288.106C522.805 288.065 522.855 288.029 522.907 287.998L524.265 289.535L524.179 289.614C524.046 289.725 523.945 289.87 523.886 290.033C523.826 290.196 523.811 290.371 523.841 290.542C523.946 291.033 524.189 291.484 524.543 291.841C524.821 292.206 525.191 292.49 525.616 292.664C525.749 292.713 525.893 292.725 526.032 292.698C526.171 292.671 526.3 292.607 526.405 292.512C526.471 292.458 526.526 292.39 526.565 292.313C526.604 292.237 526.627 292.153 526.632 292.067C526.617 291.802 526.539 291.545 526.404 291.316C526.142 290.827 525.854 290.352 525.54 289.895C525.204 289.394 524.935 288.85 524.74 288.279C524.594 287.866 524.575 287.419 524.684 286.995C524.821 286.568 525.079 286.19 525.428 285.908C525.826 285.523 526.353 285.299 526.906 285.279C527.463 285.284 528.007 285.444 528.478 285.741C529.049 286.096 529.561 286.54 529.994 287.055C530.408 287.513 530.744 288.035 530.99 288.602C531.201 289.072 531.296 289.586 531.268 290.101C531.25 290.33 531.187 290.553 531.083 290.757C530.979 290.961 530.835 291.143 530.66 291.291L530.554 291.385C530.497 291.426 530.435 291.46 530.37 291.485L529 289.934C529.187 289.785 529.314 289.574 529.356 289.339C529.381 289.112 529.338 288.882 529.231 288.681C529.101 288.426 528.938 288.19 528.747 287.978C528.054 287.195 527.492 286.991 527.058 287.374C526.996 287.424 526.945 287.487 526.91 287.558C526.874 287.629 526.855 287.707 526.853 287.787C526.882 288.035 526.964 288.274 527.094 288.487C527.263 288.8 527.513 289.225 527.864 289.778C528.232 290.324 528.533 290.913 528.762 291.53C528.928 291.953 528.957 292.417 528.845 292.856C528.692 293.303 528.415 293.697 528.047 293.993C527.627 294.4 527.075 294.642 526.492 294.675C525.91 294.676 525.341 294.505 524.856 294.183C524.245 293.776 523.695 293.282 523.226 292.717Z" fill="black"/>
<path d="M537.334 304.48L539.036 303.279L541.468 306.723L539.768 307.928L537.334 304.48Z" fill="black"/>
<path d="M-43.9714 120.358C45.2536 60.4492 162.119 70.0187 233.889 138.466C316.279 217.033 315.838 330.387 269.108 408.274" stroke="#D9D9D9" stroke-width="43" stroke-miterlimit="10"/>
<path d="M14.7674 99.0412L10.6441 85.4566L15.7709 83.901C16.498 83.6767 17.2555 83.5665 18.0164 83.5744C18.7131 83.5804 19.4013 83.7277 20.0396 84.0071C20.6751 84.2969 21.2376 84.7253 21.6858 85.2609C22.1884 85.8796 22.5592 86.5945 22.7754 87.3618L23.7965 90.7291C24.0431 91.4869 24.1327 92.2869 24.06 93.0805C23.9884 93.7724 23.7577 94.4384 23.3861 95.0265C23.0072 95.6124 22.516 96.1174 21.9409 96.5124C21.3176 96.9448 20.6292 97.2749 19.9017 97.4901L14.7674 99.0412ZM17.1683 95.6954L18.8848 95.1814C19.3467 95.0506 19.78 94.8344 20.1622 94.5439C20.4936 94.2767 20.7184 93.8999 20.7961 93.4814C20.8891 92.9368 20.8395 92.3774 20.6523 91.8576L19.5214 88.107C19.3889 87.5756 19.1228 87.0869 18.7484 86.6872C18.4425 86.3848 18.0412 86.198 17.6129 86.1585C17.1316 86.1216 16.6478 86.1816 16.1901 86.335L14.4736 86.849L17.1683 95.6954Z" fill="#0019FF"/>
<path d="M31.4951 94.5217C30.4981 94.8094 29.4456 94.8471 28.4306 94.6314C27.5941 94.4323 26.8473 93.9616 26.3069 93.2928C25.7195 92.5422 25.3062 91.6705 25.0968 90.7407L24.9595 90.1974C24.6994 89.2561 24.6875 88.2634 24.925 87.3161C25.1596 86.4654 25.6424 85.7039 26.3118 85.1289C27.0723 84.4929 27.974 84.0482 28.9415 83.8318C29.8216 83.5882 30.7474 83.5602 31.6407 83.7502C32.4171 83.9235 33.1283 84.314 33.6913 84.8761C34.2763 85.5013 34.6802 86.2739 34.8598 87.1112L35.2138 88.5373L28.2858 90.2591L28.4147 90.7821C28.4679 91.1069 28.5847 91.418 28.7584 91.6975C28.9321 91.9771 29.1593 92.2196 29.4269 92.4112C29.673 92.5589 29.9468 92.6544 30.2314 92.6918C30.5159 92.7293 30.8051 92.7079 31.0811 92.629C31.6565 92.5331 32.1703 92.2127 32.5097 91.7382C32.6426 91.4861 32.7231 91.2098 32.7462 90.9257C32.7694 90.6417 32.7347 90.356 32.6444 90.0857L35.4092 89.3614C35.6177 90.1107 35.5923 90.9059 35.3364 91.6404C35.0641 92.3442 34.5936 92.9539 33.9817 93.3956C33.2362 93.9329 32.3908 94.3158 31.4951 94.5217ZM27.904 88.5703L31.9011 87.5762L31.8355 87.3167C31.7497 86.9434 31.5717 86.5976 31.318 86.3107C31.0822 86.0524 30.7812 85.8623 30.4467 85.7602C30.0906 85.6598 29.7139 85.6584 29.3571 85.7562C28.9742 85.8401 28.6257 86.0378 28.3574 86.3235C28.1074 86.5973 27.9329 86.9313 27.8509 87.2928C27.768 87.6602 27.7721 88.0418 27.8628 88.4073L27.904 88.5703Z" fill="#0019FF"/>
<path d="M43.1066 91.9277C42.3038 92.0979 41.4788 92.1373 40.6635 92.0442C39.9982 91.9784 39.3648 91.7267 38.8359 91.3179C38.3442 90.9126 38.0156 90.3434 37.9106 89.715L37.8769 89.5308C37.8629 89.4553 37.8554 89.3788 37.8544 89.3021L40.3525 88.8185L40.3815 88.9589C40.4175 89.1715 40.509 89.3709 40.6468 89.5369C40.7846 89.7028 40.9637 89.8294 41.1662 89.9038C41.7547 90.0969 42.3861 90.1178 42.9861 89.9641C43.5471 89.9003 44.081 89.6878 44.5324 89.3485C44.6672 89.2364 44.7694 89.0901 44.8282 88.925C44.887 88.7599 44.9003 88.5819 44.8668 88.4099C44.8498 88.3043 44.8116 88.2033 44.7546 88.1128C44.6975 88.0224 44.6227 87.9444 44.5347 87.8837C44.2392 87.7349 43.9128 87.6578 43.582 87.6588C42.8929 87.6282 42.2027 87.6375 41.5147 87.6867C40.7666 87.7299 40.0161 87.6767 39.2815 87.5286C38.7471 87.4266 38.2559 87.1657 37.8722 86.7801C37.5015 86.3668 37.2584 85.8549 37.1722 85.3064C37.0132 84.636 37.1057 83.9305 37.4322 83.3237C37.7859 82.7307 38.2976 82.2478 38.9101 81.9291C39.6494 81.536 40.4452 81.2602 41.2692 81.1114C42.0188 80.956 42.7889 80.9252 43.5485 81.0203C44.1847 81.0891 44.7953 81.3092 45.3291 81.6621C45.5636 81.8241 45.7635 82.0313 45.9168 82.2716C46.0702 82.5118 46.174 82.7803 46.2221 83.0613L46.2588 83.2318C46.2721 83.3195 46.2741 83.4086 46.2648 83.4968L43.7448 83.9827C43.7053 83.6903 43.5611 83.4221 43.3389 83.2279C43.1136 83.0565 42.8411 82.9583 42.5582 82.9467C42.1999 82.9254 41.8404 82.9504 41.4885 83.0212C40.2093 83.2834 39.6479 83.7432 39.7849 84.4503C39.7995 84.5479 39.8354 84.6411 39.89 84.7233C39.9446 84.8055 40.0167 84.8747 40.101 84.926C40.3857 85.0603 40.6981 85.1255 41.0128 85.1162C41.4418 85.1363 42.0639 85.1332 42.8718 85.1024C43.6877 85.052 44.5067 85.0983 45.3118 85.2404C45.869 85.3273 46.3846 85.5881 46.7845 85.9857C47.1679 86.4299 47.4177 86.9735 47.5051 87.5537C47.6839 88.2597 47.6025 89.0064 47.2756 89.6572C46.9111 90.2801 46.3711 90.7818 45.7231 91.0995C44.8957 91.5009 44.0143 91.7799 43.1066 91.9277Z" fill="#0019FF"/>
<path d="M53.7846 90.1056C52.886 90.2864 51.9524 90.1436 51.1491 89.7023C50.7935 89.462 50.4977 89.1433 50.2844 88.7708C50.0712 88.3983 49.9461 87.9819 49.9189 87.5535C49.7859 86.8289 49.9223 86.0807 50.3024 85.4496C50.7875 84.7931 51.4622 84.3009 52.2356 84.0395C53.4266 83.6028 54.6653 83.3092 55.9257 83.1648L55.7873 82.1851C55.7738 81.9832 55.7169 81.7865 55.6204 81.6086C55.5239 81.4307 55.3901 81.2757 55.2282 81.1543C54.8171 80.9323 54.3397 80.866 53.8836 80.9675C53.434 81.0028 53.0101 81.1916 52.6829 81.5021C52.5514 81.6409 52.4546 81.8088 52.4005 81.9921C52.3464 82.1755 52.3364 82.3691 52.3715 82.557L52.3923 82.7027L49.6184 83.0986C49.609 83.0232 49.5955 82.9483 49.5778 82.8744C49.5673 82.8483 49.5594 82.8213 49.5542 82.7937L49.57 82.7672C49.4974 82.3186 49.5451 81.8588 49.7081 81.4346C49.8711 81.0104 50.1436 80.637 50.4978 80.3524C51.4329 79.6172 52.5607 79.1683 53.7451 79.0598C55.2314 78.8544 56.4111 78.9737 57.2738 79.4268C57.7091 79.6617 58.0781 80.0027 58.3464 80.4182C58.6148 80.8337 58.7739 81.3103 58.8089 81.8037L59.5002 86.7378C59.5083 86.9025 59.5786 87.0581 59.6969 87.173C59.7531 87.2154 59.8177 87.2452 59.8863 87.2605C59.955 87.2759 60.0262 87.2763 60.095 87.2618C60.3131 87.2319 60.5173 87.1379 60.6818 86.9916L60.9317 88.7555C60.7056 88.9248 60.4538 89.0567 60.1859 89.1463C59.8779 89.2584 59.5589 89.3379 59.2343 89.3835C58.837 89.451 58.4313 89.4516 58.0338 89.3851C57.7589 89.3281 57.5112 89.1804 57.3305 88.9655C57.1407 88.723 57.0016 88.4447 56.9214 88.1473C56.7503 88.5044 56.5119 88.8253 56.2194 89.0922C55.9082 89.373 55.5516 89.5989 55.1647 89.7601C54.7219 89.9358 54.2579 90.052 53.7846 90.1056ZM54.5607 88.0053C54.9537 87.9629 55.325 87.8042 55.6272 87.5496C55.8984 87.3017 56.0906 86.9795 56.1799 86.6232C56.2888 86.236 56.3143 85.83 56.2546 85.4322L56.1515 84.6684C55.4589 84.7507 54.777 84.9058 54.117 85.1311C53.7064 85.2585 53.3439 85.5068 53.0768 85.8435C52.8774 86.1506 52.8025 86.522 52.8672 86.8823C52.8793 87.0669 52.931 87.2467 53.0187 87.4096C53.1064 87.5725 53.2281 87.7146 53.3755 87.8264C53.7315 88.035 54.1532 88.1017 54.5562 88.0129L54.5607 88.0053Z" fill="#0019FF"/>
<path d="M64.598 88.5588L63.8989 80.2774L61.6341 80.4644L61.4381 78.2148L66.1812 77.8093L66.4429 79.1753C66.6351 78.6772 66.9716 78.2478 67.4093 77.9421C67.9316 77.5838 68.5429 77.3771 69.1754 77.3449C69.5809 77.2889 69.9936 77.3186 70.3868 77.4322C70.7801 77.5458 71.1451 77.7407 71.4582 78.0043C72.0538 78.5574 72.4093 79.3215 72.449 80.1333C72.4653 80.3379 72.4795 80.5463 72.4898 80.7524C72.5001 80.9585 72.506 81.1722 72.4952 81.3965L69.9776 81.612L69.9347 81.0738C69.9139 80.8119 69.8312 80.5588 69.6935 80.3352C69.5606 80.1229 69.3739 79.9496 69.1523 79.8329C68.8946 79.7073 68.6058 79.6597 68.3214 79.6961C68.0317 79.7096 67.7554 79.8214 67.5377 80.0129C67.3274 80.2017 67.1722 80.444 67.0887 80.714C66.993 81.0055 66.9594 81.3137 66.9898 81.6189L67.5595 88.2953L64.598 88.5588ZM62.2872 88.7542L62.0892 86.5854L71.4719 85.7845L71.67 87.9534L62.2872 88.7542Z" fill="#0019FF"/>
<path d="M76.7819 87.6853L76.5297 79.368L74.2578 79.438L74.1864 77.1858L78.9438 77.0401L79.1406 78.4289C79.3573 77.9389 79.7178 77.5264 80.1743 77.2461C80.7154 76.9187 81.3361 76.7463 81.9686 76.7477C82.3801 76.7106 82.7949 76.7609 83.1857 76.895C83.5765 77.0292 83.9346 77.2444 84.2366 77.5265C84.8013 78.1143 85.1129 78.9003 85.1044 79.7155C85.1087 79.9231 85.113 80.1307 85.1135 80.3361C85.1141 80.5415 85.098 80.7575 85.0774 80.9811L82.5541 81.0343L82.5301 80.5073C82.5251 80.2452 82.4568 79.9881 82.3311 79.758C82.2108 79.538 82.0335 79.3543 81.8178 79.2262C81.5663 79.0883 81.2807 79.0246 80.9944 79.0426C80.7057 79.0437 80.4253 79.1394 80.1962 79.3149C79.9768 79.4941 79.8088 79.7282 79.7094 79.9935C79.5986 80.2784 79.5478 80.5831 79.5599 80.8886L79.7664 87.5894L76.7819 87.6853ZM74.4647 87.7539L74.3987 85.5613L83.8009 85.2693L83.8669 87.4619L74.4647 87.7539Z" fill="#0019FF"/>
<path d="M91.9584 87.7676C90.9661 87.7714 89.9906 87.5115 89.1317 87.0145C88.3662 86.5576 87.7504 85.8874 87.36 85.086C86.9482 84.2317 86.7551 83.2885 86.798 82.3412L86.8076 81.947C86.8113 80.9871 87.0552 80.0435 87.5172 79.202C87.9526 78.4293 88.6014 77.7982 89.3859 77.3844C90.2608 76.94 91.2366 76.7321 92.2166 76.7814C93.2126 76.7835 94.1909 77.0454 95.0546 77.5413C95.8223 77.9938 96.4422 78.6592 96.8392 79.457C97.2503 80.3162 97.4423 81.2638 97.3982 82.2153L97.3886 82.6095C97.3843 83.5725 97.1401 84.5193 96.6783 85.3643C96.2442 86.1396 95.5917 86.7702 94.802 87.1775C93.9206 87.6154 92.9412 87.8187 91.9584 87.7676ZM92.0078 85.8028C92.2906 85.816 92.5727 85.7652 92.8332 85.6544C93.0937 85.5435 93.3259 85.3754 93.5125 85.1625C93.9376 84.6828 94.1647 84.0596 94.1476 83.4189L94.2054 81.2079C94.2529 80.5692 94.0573 79.9363 93.658 79.4356C93.4814 79.2176 93.2587 79.0415 93.0059 78.92C92.7531 78.7984 92.4764 78.7344 92.1959 78.7326C91.9143 78.7236 91.6342 78.7767 91.3755 78.8882C91.1167 78.9996 90.8857 79.1667 90.6987 79.3774C90.2702 79.8554 90.0396 80.4785 90.0538 81.1203L89.9998 83.3335C89.9515 83.9749 90.15 84.6104 90.5547 85.1103C90.7312 85.3254 90.9529 85.499 91.204 85.6187C91.4551 85.7384 91.7296 85.8012 92.0078 85.8028Z" fill="#0019FF"/>
<path d="M102.85 88.1078L103.883 75.4871L100.335 75.1956L100.522 72.9488L107.079 73.4818L105.86 88.3553L102.85 88.1078ZM99.3016 87.8163L99.4818 85.6321L109.298 86.4332L109.12 88.6234L99.3016 87.8163Z" fill="#0019FF"/>
<path d="M114.997 89.3764L116.751 76.8271L113.226 76.334L113.535 74.0982L120.055 75.0096L117.987 89.7864L114.997 89.3764ZM111.471 88.8832L111.773 86.7101L121.53 88.0754L121.218 90.2576L111.471 88.8832Z" fill="#0019FF"/>
<path d="M128.284 91.8023C127.306 91.6335 126.39 91.2092 125.629 90.5722C124.952 89.9919 124.459 89.2274 124.209 88.3717C123.952 87.4581 123.922 86.4953 124.123 85.5676L124.199 85.1823C124.367 84.2369 124.77 83.3489 125.371 82.6C125.932 81.9148 126.678 81.4044 127.52 81.129C128.457 80.8387 129.454 80.8004 130.411 81.0182C131.391 81.1883 132.311 81.6113 133.078 82.2452C133.757 82.8242 134.254 83.5873 134.51 84.4426C134.767 85.3583 134.793 86.3235 134.587 87.252L134.511 87.6373C134.343 88.5857 133.94 89.4769 133.339 90.2294C132.78 90.922 132.029 91.4336 131.18 91.6997C130.239 91.9808 129.242 92.0161 128.284 91.8023ZM128.666 89.8721C128.943 89.9323 129.23 89.9303 129.506 89.8661C129.782 89.802 130.04 89.6773 130.262 89.501C130.76 89.0977 131.089 88.5218 131.183 87.8874L131.617 85.7162C131.773 85.0956 131.688 84.4392 131.381 83.8782C131.24 83.6372 131.049 83.4291 130.821 83.2676C130.593 83.1061 130.333 82.9949 130.059 82.9415C129.785 82.888 129.503 82.8936 129.231 82.9576C128.959 83.0217 128.704 83.1429 128.483 83.3132C127.979 83.7112 127.646 84.2856 127.55 84.9201L127.107 87.1064C126.952 87.7293 127.039 88.3878 127.351 88.9489C127.49 89.1899 127.68 89.3976 127.908 89.5575C128.136 89.7173 128.396 89.8255 128.67 89.8743L128.666 89.8721Z" fill="#0019FF"/>
<path d="M150.802 92.8237L151.599 90.3616L156.578 91.9837L155.766 94.4624L150.802 92.8237Z" fill="#0019FF"/>
<path d="M170.096 104.548L176.032 91.6841L180.9 93.9316C181.589 94.247 182.226 94.6652 182.79 95.1719C183.305 95.6398 183.72 96.2082 184.008 96.8421C184.292 97.4806 184.428 98.1752 184.406 98.8737C184.37 99.6697 184.172 100.45 183.823 101.166L182.336 104.38C182.015 105.11 181.548 105.767 180.964 106.31C180.451 106.769 179.84 107.106 179.177 107.295C178.505 107.478 177.804 107.53 177.112 107.447C176.355 107.354 175.618 107.139 174.929 106.811L170.096 104.548ZM174.113 103.649L175.749 104.404C176.179 104.618 176.646 104.745 177.125 104.779C177.551 104.807 177.973 104.682 178.314 104.427C178.744 104.083 179.077 103.634 179.282 103.123L180.924 99.5704C181.178 99.0861 181.303 98.5448 181.288 97.9982C181.263 97.5684 181.089 97.1606 180.797 96.8442C180.463 96.4981 180.064 96.2215 179.622 96.0302L177.988 95.271L174.113 103.649Z" fill="#0019FF"/>
<path d="M184.804 111.708L188.735 104.389L185.6 102.708L186.668 100.721L192.464 103.835L187.459 113.153L184.804 111.708ZM181.672 110.024L182.713 108.081L191.389 112.744L190.348 114.687L181.672 110.024ZM190.86 100.637L192.004 98.5052L194.193 99.6828L193.045 101.813L190.86 100.637Z" fill="#0019FF"/>
<path d="M195.834 118.262C195.129 117.844 194.496 117.314 193.96 116.693C193.517 116.191 193.222 115.575 193.109 114.914C193.024 114.282 193.17 113.641 193.52 113.108C193.547 113.063 193.579 113.01 193.615 112.95C193.655 112.884 193.701 112.822 193.751 112.764L195.916 114.102L195.842 114.227C195.725 114.407 195.658 114.615 195.647 114.83C195.636 115.045 195.681 115.258 195.778 115.45C196.081 115.997 196.534 116.445 197.084 116.742C197.546 117.074 198.089 117.277 198.655 117.33C198.83 117.339 199.005 117.301 199.16 117.219C199.315 117.138 199.445 117.016 199.537 116.867C199.596 116.777 199.636 116.676 199.655 116.57C199.674 116.465 199.672 116.356 199.648 116.251C199.533 115.943 199.347 115.666 199.104 115.445C198.619 114.958 198.106 114.5 197.569 114.073C196.989 113.598 196.473 113.051 196.034 112.444C195.711 112.006 195.526 111.481 195.502 110.938C195.513 110.382 195.683 109.841 195.991 109.379C196.324 108.776 196.868 108.318 197.518 108.09C198.19 107.89 198.904 107.884 199.579 108.074C200.39 108.284 201.163 108.622 201.868 109.075C202.525 109.467 203.113 109.965 203.608 110.549C204.022 111.033 204.313 111.609 204.457 112.23C204.519 112.507 204.526 112.794 204.476 113.074C204.426 113.355 204.32 113.622 204.165 113.86L204.075 114.012C204.027 114.086 203.97 114.153 203.904 114.212L201.72 112.863C201.887 112.621 201.961 112.326 201.928 112.034C201.878 111.754 201.744 111.495 201.545 111.292C201.299 111.036 201.019 110.814 200.713 110.632C199.598 109.967 198.869 109.917 198.49 110.526C198.436 110.609 198.4 110.702 198.384 110.799C198.369 110.897 198.373 110.996 198.399 111.092C198.522 111.376 198.707 111.63 198.94 111.835C199.241 112.144 199.699 112.562 200.316 113.087C200.948 113.604 201.519 114.192 202.018 114.84C202.367 115.284 202.569 115.825 202.595 116.389C202.576 116.975 202.39 117.544 202.059 118.028C201.706 118.661 201.139 119.148 200.46 119.402C199.769 119.611 199.032 119.612 198.341 119.404C197.454 119.15 196.608 118.765 195.834 118.262Z" fill="#0019FF"/>
<path d="M206.272 125.129C205.401 124.566 204.681 123.797 204.177 122.89C203.782 122.127 203.649 121.254 203.797 120.408C203.976 119.47 204.364 118.585 204.932 117.819L205.252 117.359C205.794 116.544 206.54 115.886 207.416 115.45C208.212 115.067 209.106 114.932 209.98 115.063C210.958 115.22 211.884 115.61 212.679 116.201C213.44 116.705 214.069 117.384 214.512 118.182C214.89 118.884 215.061 119.679 215.005 120.475C214.928 121.323 214.621 122.135 214.118 122.822L213.272 124.025L207.391 119.901L207.116 120.362C206.693 120.868 206.489 121.52 206.547 122.176C206.596 122.459 206.703 122.729 206.862 122.969C207.021 123.208 207.228 123.412 207.47 123.567C207.692 123.752 207.949 123.891 208.225 123.977C208.501 124.062 208.791 124.093 209.079 124.066C209.356 124 209.617 123.879 209.847 123.711C210.076 123.542 210.269 123.328 210.414 123.083L212.733 124.713C212.303 125.36 211.686 125.861 210.964 126.149C210.251 126.408 209.477 126.453 208.739 126.278C207.848 126.064 207.009 125.673 206.272 125.129ZM208.412 118.516L211.78 120.879L211.918 120.648C212.142 120.341 212.285 119.982 212.335 119.605C212.377 119.257 212.323 118.905 212.18 118.585C212.023 118.249 211.777 117.963 211.47 117.756C211.155 117.523 210.776 117.39 210.384 117.375C210.014 117.366 209.648 117.453 209.321 117.628C208.988 117.803 208.702 118.056 208.486 118.365L208.412 118.516Z" fill="#0019FF"/>
<path d="M212.41 129.277L218.99 120.996L220.935 122.541L220.34 123.683C220.886 123.494 221.476 123.471 222.035 123.618C222.652 123.786 223.226 124.084 223.718 124.493C224.529 125.067 225.08 125.94 225.249 126.919C225.301 127.406 225.249 127.898 225.098 128.363C224.946 128.829 224.699 129.257 224.371 129.62L219.905 135.241L217.506 133.333L221.571 128.237C221.94 127.836 222.155 127.318 222.178 126.774C222.162 126.543 222.095 126.318 221.981 126.116C221.868 125.914 221.71 125.74 221.52 125.607C221.263 125.394 220.948 125.263 220.616 125.232C220.287 125.196 219.954 125.253 219.656 125.398C219.324 125.57 219.035 125.815 218.809 126.113L214.773 131.159L212.41 129.277ZM220.594 120.113C220.94 119.713 221.352 119.374 221.812 119.111C222.223 118.869 222.691 118.74 223.168 118.736C223.639 118.741 224.093 118.911 224.452 119.215C224.821 119.493 225.118 119.855 225.319 120.271C225.482 120.629 225.626 120.995 225.751 121.369C225.842 121.692 226.027 121.98 226.281 122.198C226.387 122.29 226.512 122.357 226.648 122.394C226.783 122.43 226.925 122.435 227.063 122.408C227.373 122.337 227.658 122.185 227.89 121.968L228.932 122.8C228.587 123.192 228.183 123.527 227.734 123.793C227.323 124.032 226.857 124.158 226.382 124.16C225.903 124.16 225.44 123.989 225.075 123.678C224.711 123.398 224.42 123.035 224.226 122.618C224.048 122.22 223.9 121.849 223.782 121.497C223.688 121.176 223.504 120.888 223.252 120.668C223.152 120.582 223.034 120.521 222.906 120.488C222.779 120.456 222.646 120.453 222.517 120.481C222.189 120.553 221.885 120.712 221.638 120.941L220.594 120.113Z" fill="#0019FF"/>
<path d="M225.302 140.255C224.552 139.615 223.984 138.788 223.656 137.858C223.369 137.013 223.335 136.102 223.558 135.237C223.797 134.319 224.262 133.475 224.91 132.783L225.172 132.488C225.797 131.759 226.595 131.198 227.493 130.858C228.324 130.554 229.225 130.493 230.089 130.684C231.044 130.912 231.922 131.386 232.636 132.06C233.394 132.706 233.969 133.539 234.306 134.476C234.599 135.323 234.637 136.237 234.415 137.105C234.173 138.024 233.707 138.87 233.059 139.567L232.793 139.859C232.168 140.592 231.368 141.155 230.467 141.496C229.634 141.807 228.727 141.865 227.86 141.664C226.9 141.423 226.018 140.938 225.302 140.255ZM226.615 138.793C226.819 138.985 227.064 139.128 227.331 139.213C227.598 139.297 227.88 139.321 228.158 139.283C228.792 139.194 229.368 138.867 229.77 138.368L231.262 136.726C231.714 136.273 231.976 135.665 231.995 135.025C231.996 134.746 231.939 134.469 231.825 134.214C231.712 133.959 231.546 133.73 231.338 133.544C231.13 133.357 230.885 133.217 230.619 133.132C230.353 133.047 230.072 133.019 229.794 133.051C229.158 133.14 228.578 133.467 228.172 133.965L226.682 135.604C226.23 136.059 225.97 136.671 225.955 137.313C225.952 137.591 226.01 137.867 226.126 138.121C226.241 138.375 226.41 138.6 226.622 138.782L226.615 138.793Z" fill="#0019FF"/>
<path d="M244.175 152.59L246.115 150.876L249.576 154.802L247.639 156.512L244.175 152.59Z" fill="#0019FF"/>
<path d="M256.579 175.385C256.012 174.661 255.72 173.761 255.753 172.842C255.809 172.416 255.961 172.009 256.198 171.651C256.434 171.293 256.75 170.994 257.119 170.776C257.706 170.332 258.435 170.12 259.168 170.178C259.986 170.309 260.743 170.694 261.331 171.278C262.26 172.145 263.083 173.12 263.782 174.181L264.589 173.637C264.763 173.533 264.912 173.393 265.027 173.227C265.142 173.06 265.221 172.871 265.257 172.672C265.272 172.205 265.117 171.747 264.82 171.386C264.585 171.002 264.225 170.709 263.801 170.558C263.618 170.503 263.425 170.492 263.237 170.526C263.049 170.56 262.872 170.638 262.72 170.754L262.6 170.836L261.003 168.519C261.068 168.479 261.129 168.434 261.187 168.383C261.199 168.36 261.213 168.337 261.227 168.315L261.246 168.285C261.614 168.02 262.047 167.857 262.499 167.813C262.951 167.77 263.406 167.846 263.819 168.036C264.896 168.54 265.805 169.346 266.434 170.355C267.29 171.593 267.71 172.695 267.696 173.671C267.683 174.165 267.545 174.648 267.295 175.074C267.045 175.5 266.691 175.857 266.267 176.11L262.196 178.972C262.055 179.055 261.95 179.188 261.902 179.345C261.889 179.414 261.891 179.485 261.908 179.553C261.925 179.622 261.956 179.686 261.999 179.741C262.125 179.922 262.301 180.063 262.506 180.146L261.04 181.159C260.789 181.035 260.559 180.874 260.357 180.679C260.118 180.456 259.904 180.208 259.717 179.939C259.476 179.614 259.292 179.249 259.176 178.862C259.095 178.593 259.108 178.304 259.213 178.043C259.347 177.766 259.534 177.517 259.763 177.31C259.364 177.325 258.967 177.262 258.592 177.124C258.201 176.973 257.837 176.756 257.518 176.484C257.158 176.161 256.842 175.792 256.579 175.385ZM258.784 175.127C259 175.456 259.306 175.715 259.666 175.874C260.007 176.01 260.381 176.044 260.741 175.971C261.137 175.895 261.511 175.733 261.838 175.498L262.484 175.052C262.101 174.47 261.656 173.931 261.156 173.445C260.859 173.134 260.475 172.921 260.054 172.834C259.69 172.794 259.324 172.895 259.03 173.115C258.871 173.21 258.734 173.337 258.628 173.489C258.523 173.641 258.451 173.814 258.418 173.996C258.395 174.409 258.53 174.816 258.795 175.133L258.784 175.127Z" fill="#0019FF"/>
<path d="M261.731 182.571L273.864 175.192L277.372 180.956C277.765 181.585 277.98 182.309 277.995 183.05C278.006 183.776 277.834 184.493 277.494 185.135C277.153 185.787 276.636 186.331 276.003 186.706L275.722 186.877C275.086 187.272 274.355 187.488 273.606 187.502C272.873 187.518 272.147 187.346 271.499 187.003C270.841 186.657 270.292 186.136 269.911 185.497L268.053 182.441L263.379 185.292L261.731 182.571ZM270.157 181.158L271.553 183.457C271.72 183.743 271.96 183.978 272.249 184.139C272.528 184.285 272.842 184.353 273.156 184.337C273.502 184.313 273.836 184.204 274.13 184.02C274.411 183.853 274.647 183.618 274.814 183.337C274.969 183.069 275.054 182.767 275.061 182.459C275.062 182.119 274.964 181.787 274.781 181.502L273.382 179.206L270.157 181.158Z" fill="#0019FF"/>
<path d="M268.031 193.04L280.571 186.38L283.719 192.36C284.076 193.01 284.249 193.744 284.221 194.484C284.19 195.21 283.975 195.917 283.596 196.537C283.216 197.167 282.671 197.68 282.019 198.021L281.727 198.175C281.069 198.532 280.327 198.704 279.579 198.673C278.846 198.648 278.131 198.435 277.503 198.054C276.868 197.669 276.351 197.116 276.011 196.456L274.313 193.286L269.489 195.847L268.031 193.04ZM276.533 192.108L277.796 194.486C277.945 194.78 278.171 195.028 278.449 195.204C278.715 195.364 279.019 195.448 279.33 195.448C279.676 195.449 280.016 195.361 280.318 195.191C280.608 195.041 280.856 194.821 281.039 194.55C281.217 194.289 281.323 193.987 281.347 193.672C281.369 193.334 281.293 192.997 281.127 192.701L279.865 190.322L276.533 192.108Z" fill="#0019FF"/>
<path d="M275.505 208.279C275.147 207.539 274.914 206.745 274.815 205.93C274.723 205.268 274.82 204.593 275.094 203.984C275.37 203.409 275.847 202.955 276.434 202.707L276.604 202.629C276.674 202.6 276.746 202.574 276.819 202.552L277.877 204.87L277.744 204.929C277.547 205.015 277.375 205.151 277.247 205.324C277.119 205.496 277.038 205.7 277.013 205.913C276.976 206.531 277.113 207.146 277.411 207.688C277.609 208.221 277.946 208.691 278.387 209.05C278.531 209.155 278.7 209.218 278.877 209.233C279.054 209.248 279.232 209.215 279.392 209.137C279.491 209.095 279.58 209.034 279.654 208.957C279.729 208.879 279.786 208.788 279.824 208.687C279.901 208.366 279.898 208.03 279.818 207.709C279.686 207.036 279.515 206.37 279.305 205.717C279.085 205 278.959 204.258 278.93 203.509C278.908 202.966 279.05 202.429 279.337 201.968C279.653 201.511 280.095 201.155 280.609 200.943C281.222 200.631 281.928 200.554 282.594 200.727C283.253 200.932 283.842 201.316 284.296 201.835C284.852 202.462 285.307 203.171 285.646 203.937C285.971 204.631 286.184 205.372 286.275 206.132C286.358 206.786 286.278 207.449 286.04 208.064C285.939 208.33 285.785 208.573 285.589 208.778C285.392 208.984 285.156 209.149 284.895 209.262L284.734 209.335C284.652 209.367 284.568 209.391 284.482 209.405L283.413 207.071C283.687 206.962 283.913 206.758 284.048 206.496C284.16 206.236 284.19 205.949 284.135 205.671C284.072 205.321 283.963 204.98 283.812 204.658C283.27 203.478 282.674 203.041 282.032 203.345C281.941 203.383 281.859 203.44 281.792 203.512C281.725 203.584 281.674 203.67 281.643 203.764C281.587 204.068 281.598 204.381 281.676 204.681C281.761 205.106 281.909 205.707 282.133 206.492C282.372 207.272 282.519 208.077 282.573 208.892C282.619 209.455 282.488 210.018 282.197 210.502C281.854 210.977 281.383 211.346 280.84 211.565C280.195 211.898 279.452 211.988 278.746 211.818C278.055 211.612 277.441 211.205 276.983 210.648C276.376 209.936 275.878 209.137 275.505 208.279Z" fill="#0019FF"/>
<path d="M287.981 227.344L290.439 226.55L292.055 231.533L289.593 232.325L287.981 227.344Z" fill="#0019FF"/>
<path d="M289.912 250.361L292.236 249.902L292.809 252.766L302.116 250.915L301.545 248.057L303.869 247.598L305.647 256.487L303.322 256.946L302.753 254.084L293.446 255.935L294.021 258.795L291.697 259.254L289.912 250.361Z" fill="#0019FF"/>
<path d="M292.194 262.135L302.669 260.663L303.011 263.123L301.798 263.542C302.324 263.781 302.768 264.171 303.073 264.662C303.404 265.209 303.614 265.82 303.69 266.455C303.879 267.423 303.678 268.427 303.13 269.248C302.834 269.637 302.458 269.958 302.028 270.191C301.598 270.424 301.124 270.564 300.637 270.601L293.527 271.605L293.101 268.572L299.554 267.664C300.098 267.629 300.611 267.4 301 267.019C301.15 266.841 301.257 266.632 301.314 266.407C301.371 266.181 301.377 265.946 301.33 265.719C301.29 265.388 301.152 265.077 300.934 264.826C300.709 264.588 300.423 264.417 300.106 264.332C299.747 264.229 299.37 264.207 299.001 264.268L292.61 265.167L292.194 262.135Z" fill="#0019FF"/>
<path d="M294.161 280.897C293.997 279.762 294.207 278.605 294.759 277.599C295.256 276.767 296.23 276.303 297.646 276.199L302.31 275.813L302.077 273.008L304.33 272.814L304.57 275.721L308.019 276.496L308.172 278.372L304.812 278.649L305.18 283.103L302.926 283.297L302.559 278.843L298.186 279.203C297.842 279.221 297.509 279.328 297.218 279.512C296.943 279.703 296.741 279.983 296.647 280.304C296.524 280.76 296.49 281.236 296.545 281.705C296.578 282.095 296.663 282.48 296.796 282.849C296.91 283.168 297.057 283.476 297.233 283.766L295.028 283.947C294.776 283.523 294.586 283.065 294.466 282.587C294.311 282.034 294.209 281.469 294.161 280.897Z" fill="#0019FF"/>
<path d="M294.655 291.216C294.591 290.18 294.782 289.145 295.213 288.201C295.589 287.427 296.21 286.799 296.98 286.415C297.84 286.004 298.781 285.789 299.734 285.787L300.296 285.773C301.272 285.721 302.244 285.925 303.117 286.364C303.896 286.777 304.534 287.413 304.95 288.19C305.406 289.071 305.644 290.048 305.644 291.04C305.691 291.952 305.519 292.862 305.142 293.694C304.801 294.414 304.26 295.022 303.585 295.446C302.856 295.885 302.021 296.117 301.169 296.117L299.702 296.154L299.52 289.017L298.995 289.037C298.668 289.02 298.34 289.069 298.032 289.18C297.724 289.291 297.441 289.462 297.199 289.683C297.001 289.891 296.848 290.137 296.75 290.407C296.652 290.676 296.61 290.964 296.629 291.25C296.613 291.539 296.654 291.828 296.75 292.1C296.846 292.373 296.995 292.624 297.188 292.84C297.405 293.023 297.658 293.162 297.93 293.246C298.203 293.33 298.489 293.358 298.772 293.329L298.84 296.163C298.059 296.203 297.284 296.002 296.62 295.587C295.985 295.169 295.486 294.574 295.186 293.875C294.836 293.032 294.655 292.128 294.655 291.216ZM301.249 288.997L301.355 293.116L301.622 293.106C302.005 293.106 302.382 293.008 302.716 292.82C303.021 292.649 303.272 292.395 303.439 292.088C303.615 291.763 303.699 291.397 303.682 291.028C303.682 290.636 303.564 290.253 303.343 289.929C303.132 289.624 302.843 289.382 302.507 289.225C302.167 289.061 301.792 288.982 301.415 288.994L301.249 288.997Z" fill="#0019FF"/>
<path d="M294.99 298.096L297.181 298.162L296.881 307.575L294.693 307.505L294.99 298.096ZM294.917 300.41L303.229 300.673L303.303 298.4L305.557 298.473L305.407 303.228L304.015 303.326C304.489 303.575 304.877 303.96 305.129 304.431C305.425 304.991 305.56 305.621 305.519 306.253C305.53 306.667 305.454 307.078 305.295 307.461C305.136 307.843 304.898 308.187 304.596 308.471C303.975 308.995 303.173 309.254 302.363 309.189C302.156 309.184 301.951 309.174 301.745 309.159C301.539 309.144 301.325 309.124 301.105 309.09L301.181 306.572L301.719 306.59C301.98 306.599 302.24 306.547 302.477 306.437C302.704 306.331 302.898 306.165 303.04 305.958C303.195 305.716 303.278 305.434 303.278 305.147C303.293 304.859 303.212 304.574 303.047 304.338C302.885 304.107 302.662 303.924 302.404 303.81C302.122 303.677 301.816 303.605 301.505 303.597L294.804 303.383L294.917 300.41Z" fill="#0019FF"/>
<path d="M294.49 311.025L296.678 311.217L295.833 320.721L293.652 320.527L294.49 311.025ZM294.259 313.64L302.538 314.37L302.769 311.775L305.015 311.972L304.784 314.567L305.796 314.658C306.471 314.697 307.114 314.955 307.629 315.392C308.132 315.842 308.495 316.427 308.675 317.077C308.887 317.839 308.954 318.633 308.872 319.42C308.82 319.859 308.732 320.294 308.609 320.719C308.517 321.128 308.364 321.521 308.155 321.884L306.205 321.715C306.321 321.468 306.42 321.214 306.501 320.953C306.591 320.682 306.651 320.4 306.678 320.115C306.718 319.723 306.707 319.328 306.647 318.938C306.604 318.612 306.456 318.307 306.226 318.072C305.937 317.823 305.57 317.684 305.189 317.679L304.512 317.619L304.174 321.39L301.93 321.19L302.262 317.42L293.982 316.689L294.259 313.64Z" fill="#0019FF"/>
<path d="M292.706 326.023C292.783 325.113 293.18 324.26 293.825 323.614C294.154 323.341 294.541 323.146 294.956 323.045C295.372 322.943 295.806 322.939 296.223 323.03C296.956 323.106 297.635 323.446 298.135 323.986C298.638 324.638 298.929 325.429 298.967 326.251C299.055 327.521 298.993 328.797 298.781 330.052L299.762 330.196C299.96 330.239 300.165 330.239 300.363 330.195C300.561 330.151 300.747 330.065 300.908 329.942C301.229 329.615 301.422 329.185 301.452 328.729C301.543 328.286 301.481 327.827 301.277 327.424C301.18 327.26 301.045 327.12 300.884 327.017C300.723 326.914 300.54 326.85 300.35 326.83L300.203 326.809L300.606 324.045C300.682 324.057 300.757 324.065 300.834 324.068L300.917 324.067L300.951 324.087C301.401 324.145 301.828 324.32 302.188 324.597C302.548 324.873 302.829 325.239 303.002 325.659C303.448 326.761 303.562 327.97 303.331 329.137C303.126 330.627 302.678 331.727 301.988 332.437C301.641 332.788 301.211 333.047 300.738 333.188C300.265 333.33 299.763 333.35 299.28 333.246L294.36 332.48C294.201 332.443 294.034 332.468 293.893 332.55C293.834 332.589 293.785 332.641 293.748 332.702C293.712 332.763 293.69 332.831 293.683 332.901C293.651 333.119 293.684 333.342 293.777 333.542L292.014 333.284C291.914 333.022 291.856 332.745 291.842 332.464C291.821 332.138 291.834 331.811 291.881 331.488C291.926 331.087 292.039 330.697 292.215 330.334C292.339 330.082 292.545 329.88 292.799 329.759C293.086 329.647 293.393 329.591 293.702 329.595C293.408 329.332 293.167 329.014 292.993 328.66C292.81 328.282 292.692 327.875 292.644 327.457C292.599 326.979 292.619 326.496 292.706 326.023ZM294.483 327.34C294.413 327.727 294.46 328.127 294.619 328.487C294.776 328.82 295.025 329.1 295.337 329.295C295.679 329.506 296.062 329.644 296.46 329.698L297.24 329.809C297.356 329.121 297.398 328.423 297.365 327.726C297.359 327.297 297.223 326.88 296.976 326.53C296.736 326.252 296.399 326.077 296.033 326.039C295.852 326.001 295.665 326.001 295.484 326.039C295.303 326.078 295.132 326.154 294.982 326.263C294.69 326.551 294.517 326.939 294.499 327.349L294.483 327.34Z" fill="#0019FF"/>
<path d="M290.439 339.368C290.565 338.731 290.818 338.126 291.183 337.589C291.547 337.052 292.016 336.593 292.561 336.241C293.114 335.889 293.729 335.649 294.373 335.532C295.066 335.407 295.777 335.418 296.466 335.565L297.136 335.704C297.829 335.835 298.489 336.102 299.078 336.488C299.628 336.847 300.1 337.311 300.467 337.855C300.829 338.39 301.08 338.991 301.206 339.624C301.34 340.274 301.336 340.944 301.196 341.592L301.111 342.018C300.966 342.852 300.61 343.635 300.077 344.293C299.6 344.872 298.967 345.303 298.253 345.537C297.485 345.775 296.667 345.805 295.883 345.625L296.408 343.027C296.878 343.143 297.367 343.161 297.844 343.078C298.194 343.009 298.51 342.824 298.742 342.552C298.984 342.256 299.147 341.904 299.215 341.527C299.275 341.263 299.28 340.989 299.229 340.723C299.177 340.457 299.071 340.204 298.917 339.981C298.508 339.459 297.908 339.12 297.25 339.038L295.081 338.6C294.461 338.436 293.802 338.499 293.225 338.78C292.974 338.928 292.759 339.132 292.597 339.375C292.435 339.619 292.33 339.895 292.29 340.185C292.202 340.551 292.207 340.932 292.304 341.296C292.412 341.632 292.633 341.92 292.93 342.11C293.344 342.367 293.804 342.539 294.285 342.616L293.769 345.2C292.95 345.055 292.185 344.694 291.552 344.154C290.987 343.653 290.583 342.995 290.394 342.263C290.196 341.454 290.187 340.61 290.368 339.797L290.439 339.368Z" fill="#0019FF"/>
<path d="M287.598 351.643C287.821 350.629 288.291 349.686 288.965 348.896C289.544 348.261 290.313 347.831 291.157 347.671C292.1 347.509 293.068 347.561 293.989 347.822L294.529 347.965C295.48 348.185 296.357 348.65 297.073 349.313C297.709 349.931 298.144 350.727 298.321 351.596C298.516 352.568 298.474 353.574 298.197 354.527C297.991 355.416 297.573 356.243 296.98 356.938C296.455 357.537 295.769 357.973 295.004 358.195C294.182 358.417 293.315 358.408 292.497 358.17L291.077 357.8L292.88 350.893L292.361 350.758C292.052 350.65 291.724 350.606 291.397 350.627C291.071 350.647 290.752 350.733 290.458 350.879C290.21 351.023 289.995 351.217 289.826 351.449C289.657 351.681 289.537 351.945 289.476 352.225C289.379 352.498 289.337 352.787 289.353 353.076C289.37 353.364 289.443 353.647 289.57 353.907C289.727 354.144 289.931 354.348 290.169 354.504C290.407 354.66 290.675 354.766 290.955 354.815L290.242 357.558C289.484 357.38 288.8 356.972 288.283 356.39C287.79 355.811 287.478 355.101 287.385 354.346C287.275 353.44 287.347 352.521 287.598 351.643ZM294.541 351.34L293.494 355.33L293.755 355.399C294.123 355.503 294.511 355.513 294.883 355.425C295.22 355.345 295.528 355.175 295.776 354.933C296.037 354.658 296.221 354.319 296.31 353.951C296.4 353.582 296.391 353.197 296.286 352.833C296.165 352.481 295.954 352.168 295.674 351.924C295.393 351.672 295.056 351.492 294.69 351.399L294.541 351.34Z" fill="#0019FF"/>
<path d="M284.28 363.065C284.518 362.281 284.879 361.539 285.35 360.868C285.731 360.318 286.258 359.885 286.87 359.617C287.463 359.383 288.12 359.371 288.721 359.583L288.899 359.637C288.971 359.66 289.041 359.689 289.107 359.726L288.333 362.15L288.194 362.108C287.99 362.037 287.772 362.021 287.561 362.062C287.35 362.102 287.153 362.198 286.99 362.339C286.533 362.762 286.207 363.308 286.052 363.912C285.839 364.44 285.771 365.016 285.856 365.579C285.889 365.752 285.968 365.913 286.084 366.044C286.201 366.175 286.352 366.272 286.52 366.324C286.62 366.36 286.727 366.374 286.834 366.367C286.94 366.36 287.044 366.332 287.139 366.283C287.412 366.098 287.636 365.851 287.795 365.562C288.149 364.972 288.472 364.363 288.76 363.738C289.08 363.06 289.488 362.428 289.973 361.858C290.321 361.44 290.785 361.135 291.306 360.981C291.848 360.856 292.415 360.891 292.937 361.083C293.601 361.263 294.174 361.682 294.548 362.259C294.897 362.855 295.072 363.537 295.055 364.228C295.04 365.063 294.892 365.89 294.618 366.679C294.393 367.411 294.05 368.102 293.603 368.724C293.236 369.248 292.748 369.676 292.182 369.973C291.927 370.1 291.649 370.175 291.365 370.194C291.081 370.212 290.796 370.175 290.527 370.083L290.359 370.029C290.279 369.995 290.204 369.95 290.136 369.896L290.918 367.45C291.195 367.555 291.501 367.555 291.779 367.451C292.037 367.334 292.253 367.141 292.4 366.899C292.589 366.599 292.737 366.276 292.841 365.937C293.235 364.7 293.096 363.971 292.411 363.753C292.319 363.718 292.22 363.704 292.121 363.711C292.023 363.719 291.927 363.748 291.841 363.797C291.595 363.985 291.392 364.225 291.248 364.499C291.022 364.877 290.728 365.414 290.362 366.139C290.013 366.879 289.578 367.574 289.065 368.211C288.721 368.657 288.244 368.983 287.704 369.142C287.131 369.264 286.535 369.22 285.986 369.015C285.286 368.826 284.677 368.392 284.27 367.791C283.899 367.172 283.72 366.456 283.754 365.735C283.8 364.824 283.977 363.925 284.28 363.065Z" fill="#0019FF"/>
<path d="M280.712 385.581L283.075 386.631L280.95 391.413L278.586 390.367L280.712 385.581Z" fill="#0019FF"/>
</svg>
