<svg xmlns="http://www.w3.org/2000/svg" viewBox="0 0 1334.52 365.43"><defs><style>.cls-1,.cls-2{fill:#fff;}.cls-2{stroke:#000;stroke-miterlimit:10;stroke-width:8px;}</style></defs><g id="Capa_2" data-name="Capa 2"><g id="por_encima" data-name="por encima"><path class="cls-1" d="M202.8,0c-7.93,51.74-38.16,107.51-73.71,116.63,35.32,10.8,68.14,43.31,73.67,95.72,7.79-52,33.63-86.62,69.34-95.72C236.82,106,208.49,52.27,202.8,0Z"/><path class="cls-1" d="M1282,49.7c-6,39.18-28.89,81.42-55.81,88.33,26.75,8.18,51.6,32.8,55.79,72.49,5.9-39.39,25.47-65.6,52.51-72.49C1307.8,130,1286.35,89.28,1282,49.7Z"/><path class="cls-1" d="M55.82,162.14c-6,39.18-28.9,81.42-55.82,88.33,26.75,8.17,51.6,32.8,55.79,72.49,5.9-39.4,25.47-65.6,52.52-72.49C81.59,242.41,60.13,201.72,55.82,162.14Z"/><path class="cls-2" d="M518.74,361.43H276.19c0-109.33,109.49-199.29,242.55-199.29s242.56,90,242.56,199.29Z"/><path class="cls-2" d="M946.55,361.43H704c0-109.33,109.5-199.29,242.56-199.29s242.56,90,242.56,199.29Z"/><path d="M881.63,358.83H760.52c0-53.24,54.68-97.05,121.11-97.05s121.11,43.81,121.11,97.05Z"/><path d="M457.06,358.83H336c0-53.24,54.67-97.05,121.11-97.05s121.11,43.81,121.11,97.05Z"/></g></g></svg>